<svg width="1151" height="768" viewBox="0 0 1151 768" fill="none" xmlns="http://www.w3.org/2000/svg">
<g clip-path="url(#clip0)">
<path d="M1152 337.92L1127.94 319.36C1103.74 300.8 1055.62 263.68 1007.62 268.8C959.616 273.92 911.744 321.28 863.744 348.544C815.744 375.936 767.616 383.104 719.616 380.544C671.616 377.984 623.744 365.696 575.744 334.336C527.744 302.976 479.616 252.544 431.616 248.576C383.616 244.48 335.744 286.72 287.744 292.48C239.744 298.24 191.616 267.52 143.616 262.144C95.616 256.896 47.7441 276.864 23.9361 286.976L8.42033e-05 296.96L5.81303e-05 -1.28011L23.9361 -1.28011C47.7441 -1.28012 95.616 -1.28012 143.616 -1.28012C191.616 -1.28013 239.744 -1.28013 287.744 -1.28014C335.744 -1.28014 383.616 -1.28015 431.616 -1.28015C479.616 -1.28015 527.744 -1.28016 575.744 -1.28016C623.744 -1.28017 671.616 -1.28017 719.616 -1.28017C767.616 -1.28018 815.744 -1.28018 863.744 -1.28019C911.744 -1.28019 959.616 -1.2802 1007.62 -1.2802C1055.62 -1.2802 1103.74 -1.28021 1127.94 -1.28021L1152 -1.28021L1152 337.92Z" fill="#302A28"/>
<path d="M1152 281.6L1127.94 286.72C1103.74 291.84 1055.62 302.08 1007.62 290.176C959.616 278.144 911.744 244.096 863.744 230.4C815.744 216.704 767.616 223.616 719.616 236.416C671.616 249.216 623.744 267.904 575.744 261.12C527.744 254.336 479.616 221.824 431.616 208.384C383.616 194.944 335.744 200.576 287.744 221.824C239.744 243.2 191.616 280.32 143.616 290.56C95.6161 300.8 47.7441 284.16 23.9361 275.84L8.90883e-05 267.52L6.5589e-05 -1.28008L23.9361 -1.28008C47.7441 -1.28009 95.616 -1.28009 143.616 -1.28009C191.616 -1.2801 239.744 -1.2801 287.744 -1.28011C335.744 -1.28011 383.616 -1.28011 431.616 -1.28012C479.616 -1.28012 527.744 -1.28013 575.744 -1.28013C623.744 -1.28014 671.616 -1.28014 719.616 -1.28014C767.616 -1.28015 815.744 -1.28015 863.744 -1.28016C911.744 -1.28016 959.616 -1.28017 1007.62 -1.28017C1055.62 -1.28017 1103.74 -1.28018 1127.94 -1.28018L1152 -1.28018L1152 281.6Z" fill="#513832"/>
<path d="M1152 190.72L1127.94 195.584C1103.74 200.576 1055.62 210.304 1007.62 206.976C959.616 203.52 911.744 186.88 863.744 175.36C815.744 163.84 767.616 157.44 719.616 160C671.616 162.56 623.744 174.08 575.744 174.72C527.744 175.36 479.616 165.12 431.616 166.4C383.616 167.68 335.744 180.48 287.744 190.336C239.744 200.064 191.616 206.976 143.616 213.12C95.616 219.264 47.7441 224.896 23.9361 227.584L6.10352e-05 230.4L4.0781e-05 -1.28005L23.9361 -1.28005C47.7441 -1.28005 95.616 -1.28006 143.616 -1.28006C191.616 -1.28007 239.744 -1.28007 287.744 -1.28008C335.744 -1.28008 383.616 -1.28008 431.616 -1.28009C479.616 -1.28009 527.744 -1.2801 575.744 -1.2801C623.744 -1.28011 671.616 -1.28011 719.616 -1.28011C767.616 -1.28012 815.744 -1.28012 863.744 -1.28013C911.744 -1.28013 959.616 -1.28013 1007.62 -1.28014C1055.62 -1.28014 1103.74 -1.28015 1127.94 -1.28015L1152 -1.28015L1152 190.72Z" fill="#754440"/>
<path d="M1152 112.64L1127.94 105.984C1103.74 99.4559 1055.62 86.144 1007.62 92.416C959.616 98.56 911.744 124.16 863.744 145.664C815.744 167.296 767.616 184.704 719.616 179.84C671.616 174.976 623.744 147.584 575.744 141.056C527.744 134.4 479.616 148.48 431.616 160C383.616 171.52 335.744 180.48 287.744 177.536C239.744 174.464 191.616 159.616 143.616 149.76C95.616 139.904 47.7441 135.296 23.9361 132.864L5.66551e-05 130.56L4.51293e-05 -1.27999L23.9361 -1.27999C47.7441 -1.27999 95.616 -1.28 143.616 -1.28C191.616 -1.28001 239.744 -1.28001 287.744 -1.28001C335.744 -1.28002 383.616 -1.28002 431.616 -1.28003C479.616 -1.28003 527.744 -1.28004 575.744 -1.28004C623.744 -1.28004 671.616 -1.28005 719.616 -1.28005C767.616 -1.28006 815.744 -1.28006 863.744 -1.28007C911.744 -1.28007 959.616 -1.28007 1007.62 -1.28008C1055.62 -1.28008 1103.74 -1.28009 1127.94 -1.28009L1152 -1.28009L1152 112.64Z" fill="#9A4F52"/>
<path d="M1152 56.3199L1127.94 63.1039C1103.74 70.0159 1055.62 83.584 1007.62 91.776C959.616 99.84 911.744 102.4 863.744 105.6C815.744 108.8 767.616 112.64 719.616 100.096C671.616 87.424 623.744 58.496 575.744 48C527.744 37.504 479.616 45.696 431.616 46.336C383.616 46.976 335.744 40.064 287.744 49.536C239.744 58.88 191.616 84.48 143.616 87.0401C95.616 89.6001 47.7441 69.12 23.9361 58.88L5.57785e-05 48.64L5.14144e-05 -1.27999L23.9361 -1.27999C47.7441 -1.27999 95.616 -1.28 143.616 -1.28C191.616 -1.28001 239.744 -1.28001 287.744 -1.28001C335.744 -1.28002 383.616 -1.28002 431.616 -1.28003C479.616 -1.28003 527.744 -1.28004 575.744 -1.28004C623.744 -1.28004 671.616 -1.28005 719.616 -1.28005C767.616 -1.28006 815.744 -1.28006 863.744 -1.28007C911.744 -1.28007 959.616 -1.28007 1007.62 -1.28008C1055.62 -1.28008 1103.74 -1.28009 1127.94 -1.28009L1152 -1.28009L1152 56.3199Z" fill="#C45B65"/>
</g>
<defs>
<clipPath id="clip0">
<rect width="1152" height="768" fill="white" transform="translate(1152 768) rotate(180)"/>
</clipPath>
</defs>
</svg>
