<?xml version="1.0" standalone="no"?>
<!DOCTYPE svg PUBLIC "-//W3C//DTD SVG 20010904//EN"
 "http://www.w3.org/TR/2001/REC-SVG-20010904/DTD/svg10.dtd">
<svg version="1.0" xmlns="http://www.w3.org/2000/svg"
 width="400.000000pt" height="400.000000pt" viewBox="0 0 400.000000 400.000000"
 preserveAspectRatio="xMidYMid meet">
<metadata>
Created by potrace 1.14, written by Peter Selinger 2001-2017
</metadata>
<g transform="translate(0.000000,400.000000) scale(0.100000,-0.100000)"
fill="#000000" stroke="none">
<path d="M1878 3965 c-1 -1 -37 -6 -78 -9 -41 -4 -86 -9 -100 -11 -14 -3 -43
-7 -65 -11 -22 -3 -95 -21 -162 -40 -330 -90 -625 -264 -870 -511 -310 -314
-496 -697 -556 -1146 -14 -102 -15 -373 -3 -462 36 -251 90 -434 185 -630 304
-623 895 -1035 1581 -1102 109 -11 353 -8 440 6 41 7 91 14 110 17 144 21 388
106 550 191 303 159 534 368 724 653 123 185 197 339 251 528 28 98 30 104 50
212 36 188 40 490 9 655 -2 11 -7 36 -10 55 -24 138 -84 329 -148 464 -195
417 -512 741 -921 941 -177 86 -354 145 -505 169 -19 3 -45 8 -57 10 -68 14
-413 31 -425 21z"/>
</g>
</svg>
