<svg width="39" height="39" viewBox="0 0 39 39" fill="none" xmlns="http://www.w3.org/2000/svg">
<path d="M9.74992 18.2272C9.96371 18.2272 10.1363 18.3998 10.1363 18.6136C10.1363 19.0211 10.2535 19.4713 10.4187 19.9109C10.5866 20.3572 10.8172 20.8267 11.073 21.2827C11.584 22.1937 12.2152 23.0858 12.7076 23.6858C12.8432 23.8521 12.8186 24.0953 12.6547 24.2305C12.5818 24.2899 12.4955 24.3181 12.4098 24.3181C12.2974 24.3181 12.1868 24.2699 12.1096 24.1768C11.9686 24.0044 11.2722 23.1387 10.6129 22.0361C9.9388 20.9088 9.36353 19.6302 9.36353 18.6136C9.36353 18.3998 9.53612 18.2272 9.74992 18.2272Z"  stroke="black"/>
<path d="M26.2922 23.6868L26.2922 23.6869C26.1574 23.8514 26.1811 24.095 26.3465 24.2309L26.2922 23.6868ZM26.2922 23.6868C26.7845 23.0855 27.4159 22.192 27.927 21.2804C28.1828 20.8243 28.4133 20.3549 28.5811 19.9089C28.7463 19.4699 28.8636 19.0202 28.8636 18.6136C28.8636 18.3998 29.0362 18.2272 29.25 18.2272M26.2922 23.6868L29.25 18.2272M29.25 18.2272C29.4638 18.2272 29.6364 18.3998 29.6364 18.6136C29.6364 19.6303 29.0611 20.9088 28.387 22.0362C27.7278 23.1386 27.0314 24.0043 26.8903 24.1768C26.8129 24.2702 26.7029 24.3181 26.5909 24.3181C26.5037 24.3181 26.4179 24.2895 26.3465 24.2309L29.25 18.2272Z"  stroke="black"/>
<path d="M19.1135 18.6136C19.1135 18.3998 19.2861 18.2272 19.4999 18.2272C19.7136 18.2272 19.8862 18.3997 19.8863 18.6136C19.8863 18.6136 19.8863 18.6136 19.8863 18.6136V23.9317C19.8863 24.1455 19.7137 24.3181 19.4999 24.3181C19.2861 24.3181 19.1135 24.1455 19.1135 23.9317V18.6136Z"  stroke="black"/>
<path d="M6.59428 35.3802C6.59322 36.0069 6.83834 36.5972 7.2796 37.0395L7.28006 37.0399C7.72238 37.4822 8.31252 37.7273 8.93802 37.7273H30.0653C31.3577 37.7273 32.409 36.6759 32.409 35.3836V31.909V31.409H31.909H7.09893H6.5996L6.59893 31.9084L6.59428 35.3802ZM6.59428 35.3802L7.09428 35.3811M6.59428 35.3802V35.3804L7.09428 35.3811M7.09428 35.3811L7.09893 31.909H31.409H31.909V32.409V35.3836C31.909 36.3997 31.0816 37.2273 30.0653 37.2273H8.93802C8.44551 37.2273 7.98241 37.0351 7.63357 36.6863C7.28557 36.3375 7.09345 35.8744 7.09428 35.3811ZM27.1891 4.05035L27.3767 4.269L27.6599 4.21639C28.2268 4.1111 28.755 4.04548 29.25 4.04548C34.35 4.04548 38.4999 8.1954 38.5 13.2954C38.5 16.778 36.5378 19.9506 33.4543 21.526L33.1818 21.6652V21.9712V35.3835C33.1818 37.1017 31.7836 38.4999 30.0654 38.4999H8.93811C8.10399 38.4999 7.32326 38.1762 6.73319 37.5854L6.73317 37.5854C6.14399 36.9955 5.82095 36.2138 5.82166 35.3796L5.83895 21.9848L5.83934 21.6775L5.56529 21.5383C2.47048 19.9671 0.5 16.7898 0.5 13.2954C0.5 8.19541 4.64992 4.04547 9.75004 4.04539C10.2448 4.04539 10.7731 4.11109 11.3402 4.21632L11.6234 4.26888L11.8109 4.05026C13.673 1.87964 16.4268 0.5 19.5 0.5C22.5732 0.5 25.327 1.87964 27.1891 4.05035ZM32.6462 21.0546L32.6528 21.0519L32.6594 21.049C35.7379 19.6927 37.7272 16.6522 37.7272 13.2954C37.7272 8.62042 33.9251 4.81817 29.25 4.81817C29.0956 4.81817 28.9283 4.83291 28.7896 4.84513C28.7502 4.8486 28.713 4.85187 28.6792 4.85454L27.8906 4.91673L28.2851 5.60234C29.1403 7.08882 29.6363 8.80426 29.6363 10.6363C29.6363 10.8501 29.4637 11.0227 29.25 11.0227C29.0362 11.0227 28.8636 10.8501 28.8636 10.6363C28.8636 5.47306 24.6633 1.2727 19.5 1.2727C14.3367 1.2727 10.1363 5.47305 10.1363 10.6363C10.1363 10.8501 9.96375 11.0227 9.74996 11.0227C9.53616 11.0227 9.36357 10.8501 9.36357 10.6363C9.36357 8.80426 9.85957 7.08874 10.7148 5.60235L11.1093 4.91673L10.3208 4.85454C10.2869 4.85187 10.2498 4.8486 10.2103 4.84513C10.0716 4.83291 9.90428 4.81817 9.74996 4.81817C5.07494 4.81817 1.2727 8.62033 1.2727 13.2954C1.2727 16.6638 3.27027 19.7083 6.3608 21.0598L6.36075 21.0599L6.3708 21.064C6.39212 21.0728 6.41368 21.0839 6.43458 21.097C6.47948 21.1253 6.51739 21.1628 6.54751 21.2078C6.57964 21.2564 6.60076 21.3107 6.60887 21.3679L6.60908 21.3694C6.61159 21.3867 6.61307 21.4089 6.61263 21.4346H6.61257L6.61256 21.4425L6.60118 30.1356L6.60052 30.6363H7.10117H31.909H32.409V30.1363V21.4311H32.409L32.4089 21.4228C32.4084 21.3952 32.41 21.3754 32.4124 21.3603L32.4124 21.3603L32.4132 21.3547C32.4217 21.2971 32.4422 21.2453 32.4707 21.2022L32.4731 21.1984C32.5025 21.153 32.5415 21.1141 32.5888 21.0849L32.5888 21.0849L32.5967 21.0799C32.6095 21.0716 32.6255 21.0631 32.6462 21.0546Z"  stroke="black"/>
</svg>
