<svg width="31" height="33" viewBox="0 0 31 33" fill="none" xmlns="http://www.w3.org/2000/svg">
<path d="M27.6799 28.875H3.32008C3.02641 28.875 2.74477 28.9836 2.53712 29.177C2.32947 29.3704 2.21281 29.6327 2.21281 29.9062V31.9688C2.21281 32.2423 2.32947 32.5046 2.53712 32.698C2.74477 32.8913 3.02641 33 3.32008 33H27.6799C27.9736 33 28.2552 32.8913 28.4629 32.698C28.6705 32.5046 28.7872 32.2423 28.7872 31.9688V29.9062C28.7872 29.6327 28.6705 29.3704 28.4629 29.177C28.2552 28.9836 27.9736 28.875 27.6799 28.875ZM28.7872 10.3125H17.7145V7.21875H20.4827C20.6295 7.21875 20.7703 7.16443 20.8742 7.06773C20.978 6.97103 21.0363 6.83988 21.0363 6.70312V3.60938C21.0363 3.47262 20.978 3.34147 20.8742 3.24477C20.7703 3.14807 20.6295 3.09375 20.4827 3.09375H17.7145V0.515625C17.7145 0.378873 17.6562 0.247722 17.5524 0.151023C17.4485 0.0543246 17.3077 0 17.1609 0L13.8391 0C13.6923 0 13.5514 0.0543246 13.4476 0.151023C13.3438 0.247722 13.2855 0.378873 13.2855 0.515625V3.09375H10.5173C10.3705 3.09375 10.2297 3.14807 10.1258 3.24477C10.022 3.34147 9.96367 3.47262 9.96367 3.60938V6.70312C9.96367 6.83988 10.022 6.97103 10.1258 7.06773C10.2297 7.16443 10.3705 7.21875 10.5173 7.21875H13.2855V10.3125H2.21281C1.86562 10.3128 1.52336 10.389 1.21365 10.5352C0.903939 10.6813 0.635465 10.8932 0.429898 11.1538C0.22433 11.4144 0.0874285 11.7164 0.0302443 12.0353C-0.0269399 12.3542 -0.00280451 12.6812 0.100702 12.9899L5.15814 26.8125H25.8419L30.8993 12.9899C31.0028 12.6812 31.0269 12.3542 30.9698 12.0353C30.9126 11.7164 30.7757 11.4144 30.5701 11.1538C30.3645 10.8932 30.0961 10.6813 29.7864 10.5352C29.4766 10.389 29.1344 10.3128 28.7872 10.3125Z" />
</svg>
