<svg width="38" height="32" viewBox="0 0 38 32" fill="none" xmlns="http://www.w3.org/2000/svg">
<path d="M36.8125 4.26658H32.0625L31.5311 3.31258C31.3339 2.95823 31.0307 2.66021 30.6555 2.45191C30.2803 2.24361 29.848 2.13327 29.407 2.13324H25.4273L23.4027 0.314573C22.6538 -0.357429 21.375 0.118572 21.375 1.06858V11.0579L30.875 14.1053V11.7333H33.25C35.8736 11.7333 38 9.82327 38 7.46659V5.33325C38 4.74392 37.4686 4.26658 36.8125 4.26658ZM28.5 7.46659C27.8439 7.46659 27.3125 6.98926 27.3125 6.39992C27.3125 5.81059 27.8439 5.33325 28.5 5.33325C29.1561 5.33325 29.6875 5.81059 29.6875 6.39992C29.6875 6.98926 29.1561 7.46659 28.5 7.46659ZM7.125 12.7999C5.81578 12.7999 4.75 11.8426 4.75 10.6666C4.75 9.4886 3.68645 8.53326 2.375 8.53326C1.06355 8.53326 0 9.4886 0 10.6666C0 13.4439 1.99129 15.79 4.75 16.6733V30.9333C4.75 31.5227 5.28141 32 5.9375 32H10.6875C11.3436 32 11.875 31.5227 11.875 30.9333V23.4666H23.75V30.9333C23.75 31.5227 24.2814 32 24.9375 32H29.6875C30.3436 32 30.875 31.5227 30.875 30.9333V16.37L19.7459 12.7999H7.125Z" />
</svg>
