<svg id="svg" version="1.1" xmlns="http://www.w3.org/2000/svg" xmlns:xlink="http://www.w3.org/1999/xlink" width="400" height="400" viewBox="0, 0, 400,400">
    <g id="svgg">
        <path id="path0" d="M161.200 111.200 L 72.403 200.000 100.511 228.108 C 126.540 254.137,128.733 256.135,130.150 255.108 C 132.596 253.336,361.209 23.875,360.364 24.040 C 359.944 24.122,334.940 24.061,304.800 23.903 L 250.000 23.617 304.400 23.200 L 358.800 22.783 304.399 22.592 L 249.997 22.400 161.200 111.200 M162.002 111.998 L 74.006 199.997 101.201 227.398 L 128.397 254.800 100.800 227.400 L 73.203 200.000 161.200 112.000 C 209.599 63.600,249.377 24.000,249.597 24.000 C 249.817 24.000,210.399 63.599,162.002 111.998 M359.200 25.001 C 359.200 25.112,307.270 77.042,243.800 140.401 L 128.400 255.600 243.599 140.200 C 350.700 32.912,359.200 24.442,359.200 25.001 M202.484 232.316 L 154.172 280.633 155.832 282.916 C 156.745 284.172,178.313 305.990,203.762 331.400 L 250.032 377.600 304.241 377.600 C 351.596 377.600,358.508 377.449,358.909 376.405 C 359.161 375.747,359.780 375.434,360.284 375.708 C 361.355 376.292,338.964 353.464,296.575 310.754 C 279.956 294.009,266.173 280.494,265.947 280.720 C 265.721 280.946,286.700 302.386,312.568 328.365 L 359.600 375.600 312.200 328.403 L 264.800 281.205 312.000 234.000 C 337.960 208.037,359.200 186.526,359.200 186.197 C 359.200 185.869,334.810 185.514,305.000 185.408 L 250.800 185.217 305.200 184.800 L 359.600 184.383 305.198 184.192 L 250.795 184.000 202.484 232.316 M313.603 233.200 L 266.807 280.400 313.970 233.433 C 339.909 207.601,360.968 186.361,360.766 186.233 C 360.565 186.105,339.342 207.240,313.603 233.200 M202.800 233.600 L 155.605 280.800 203.194 328.394 L 250.784 375.989 304.792 376.200 L 358.800 376.411 304.797 376.606 L 250.795 376.800 202.800 328.800 L 154.805 280.800 202.000 233.600 C 227.957 207.640,249.375 186.400,249.595 186.400 C 249.815 186.400,228.757 207.640,202.800 233.600 " stroke="none" fill-rule="evenodd"></path>
    </g>
</svg>