<svg width="46" height="21" viewBox="0 0 46 21" fill="none" xmlns="http://www.w3.org/2000/svg">
<path d="M34.5042 1.07131e-07H11.5008C9.60484 -0.000247171 7.7382 0.427583 6.0671 1.2454C4.396 2.06322 2.97228 3.24565 1.9227 4.68742C0.873126 6.12919 0.230255 7.78557 0.051325 9.50908C-0.127605 11.2326 0.162957 12.9698 0.897144 14.5659C1.63133 16.1621 2.78636 17.5678 4.2594 18.6577C5.73244 19.7477 7.47779 20.4882 9.34005 20.8132C11.2023 21.1383 13.1237 21.0379 14.9332 20.5209C16.7427 20.0039 18.384 19.0864 19.7112 17.85H26.2888C27.6158 19.0862 29.257 20.0037 31.0662 20.5207C32.8755 21.0377 34.7966 21.1383 36.6587 20.8135C38.5208 20.4886 40.2661 19.7484 41.7391 18.6588C43.2122 17.5692 44.3674 16.1639 45.1019 14.5681C45.8364 12.9722 46.1274 11.2353 45.949 9.51194C45.7706 7.78857 45.1283 6.13222 44.0794 4.69029C43.0304 3.24837 41.6073 2.06561 39.9368 1.2473C38.2662 0.42899 36.4 0.000510246 34.5042 1.07131e-07ZM17.8254 11.2875C17.8254 11.4964 17.7345 11.6967 17.5728 11.8443C17.411 11.992 17.1917 12.075 16.9629 12.075H13.2257V15.4875C13.2257 15.6964 13.1348 15.8967 12.9731 16.0443C12.8114 16.192 12.592 16.275 12.3633 16.275H10.6384C10.4097 16.275 10.1903 16.192 10.0285 16.0443C9.86681 15.8967 9.77595 15.6964 9.77595 15.4875V12.075H6.03871C5.80998 12.075 5.59062 11.992 5.42888 11.8443C5.26714 11.6967 5.17628 11.4964 5.17628 11.2875V9.7125C5.17628 9.50364 5.26714 9.30334 5.42888 9.15565C5.59062 9.00797 5.80998 8.925 6.03871 8.925H9.77595V5.5125C9.77595 5.30364 9.86681 5.10334 10.0285 4.95565C10.1903 4.80797 10.4097 4.725 10.6384 4.725H12.3633C12.592 4.725 12.8114 4.80797 12.9731 4.95565C13.1348 5.10334 13.2257 5.30364 13.2257 5.5125V8.925H16.9629C17.1917 8.925 17.411 9.00797 17.5728 9.15565C17.7345 9.30334 17.8254 9.50364 17.8254 9.7125V11.2875ZM33.3493 16.275C32.7807 16.275 32.2249 16.121 31.7521 15.8326C31.2794 15.5442 30.9109 15.1342 30.6933 14.6545C30.4757 14.1749 30.4188 13.6471 30.5297 13.1379C30.6406 12.6287 30.9144 12.161 31.3165 11.7938C31.7185 11.4267 32.2308 11.1767 32.7884 11.0754C33.3461 10.9742 33.9241 11.0261 34.4494 11.2248C34.9747 11.4235 35.4237 11.7599 35.7396 12.1916C36.0555 12.6233 36.2241 13.1308 36.2241 13.65C36.2241 14.3462 35.9212 15.0139 35.382 15.5062C34.8429 15.9984 34.1117 16.275 33.3493 16.275ZM37.9489 9.975C37.3803 9.975 36.8245 9.82105 36.3518 9.53261C35.879 9.24417 35.5106 8.8342 35.293 8.35454C35.0754 7.87489 35.0184 7.34709 35.1294 6.83789C35.2403 6.32869 35.5141 5.86096 35.9161 5.49384C36.3182 5.12673 36.8304 4.87672 37.3881 4.77544C37.9457 4.67415 38.5238 4.72614 39.0491 4.92482C39.5744 5.1235 40.0233 5.45995 40.3392 5.89163C40.6551 6.32331 40.8237 6.83082 40.8237 7.35C40.8237 8.04619 40.5208 8.71387 39.9817 9.20615C39.4426 9.69844 38.7114 9.975 37.9489 9.975Z" />
</svg>
