<svg width="21" height="26" viewBox="0 0 21 26" fill="none" xmlns="http://www.w3.org/2000/svg">
<path d="M10.1624 6.02052C10.2112 6.04494 10.2503 6.10353 10.3089 6.10353C10.3626 6.10353 10.4456 6.084 10.4505 6.03029C10.4603 5.96193 10.3577 5.91798 10.2942 5.88869C10.2112 5.85451 10.1038 5.83986 10.0257 5.8838C10.0062 5.89357 9.98663 5.91798 9.99639 5.93751C10.011 6.00099 10.1087 5.99123 10.1624 6.02052ZM9.09307 6.10353C9.15167 6.10353 9.19073 6.04494 9.23956 6.02052C9.29327 5.99123 9.39092 6.00099 9.41046 5.9424C9.42022 5.92287 9.40069 5.89845 9.38116 5.88869C9.30303 5.84474 9.19561 5.85939 9.11261 5.89357C9.04913 5.92287 8.94659 5.96681 8.95636 6.03517C8.96124 6.084 9.04424 6.10841 9.09307 6.10353ZM19.889 19.7168C19.7132 19.5215 19.6302 19.1504 19.5374 18.7549C19.4495 18.3594 19.347 17.9346 19.0247 17.6611C18.9612 17.6074 18.8978 17.5586 18.8294 17.5195C18.7659 17.4805 18.6976 17.4463 18.6292 17.4219C19.0784 16.0889 18.9026 14.7608 18.4485 13.5596C17.8919 12.0899 16.9202 10.8057 16.178 9.92677C15.3431 8.87697 14.5325 7.88087 14.5472 6.41115C14.5716 4.16994 14.7962 0.00489693 10.846 1.41199e-05C5.846 -0.00975151 7.096 5.04884 7.04229 6.60158C6.95928 7.74415 6.72979 8.64259 5.94366 9.76076C5.02081 10.8594 3.72198 12.6318 3.10675 14.4824C2.81378 15.3565 2.67706 16.2451 2.80401 17.085C2.48663 17.3682 2.24737 17.8027 1.99346 18.0713C1.78839 18.2813 1.49053 18.3594 1.16339 18.4766C0.836237 18.5938 0.479792 18.7695 0.260066 19.1846C0.157526 19.375 0.123347 19.5801 0.123347 19.7901C0.123347 19.9805 0.152644 20.1758 0.181941 20.3662C0.240534 20.7617 0.304011 21.1328 0.221003 21.3818C-0.0329032 22.085 -0.0670829 22.5733 0.113581 22.9297C0.299128 23.2861 0.670222 23.4424 1.09503 23.5303C1.93975 23.7061 3.08721 23.6621 3.99053 24.1406C4.95733 24.6485 5.93878 24.8291 6.72003 24.6485C7.28643 24.5215 7.7503 24.1797 7.98467 23.6621C8.59503 23.6572 9.26885 23.3985 10.3431 23.3399C11.0706 23.2813 11.9837 23.5986 13.0335 23.5401C13.0628 23.6524 13.1019 23.7647 13.1556 23.8672V23.8721C13.5608 24.6875 14.3177 25.0586 15.1233 24.9951C15.9339 24.9317 16.7884 24.458 17.4817 23.6328C18.1458 22.832 19.2396 22.5 19.9671 22.0606C20.3284 21.8408 20.6214 21.5674 20.6458 21.167C20.6653 20.7666 20.431 20.3223 19.889 19.7168ZM10.304 4.26271C10.7825 3.17873 11.9739 3.19826 12.4524 4.24318C12.7698 4.93654 12.6282 5.75197 12.2425 6.21583C12.1644 6.17677 11.9544 6.08888 11.6273 5.97658C11.681 5.91798 11.7786 5.84474 11.8177 5.75197C12.0521 5.1758 11.8079 4.43361 11.3733 4.41896C11.0169 4.39455 10.6946 4.9463 10.7972 5.54201C10.597 5.44435 10.3382 5.37111 10.1624 5.32716C10.1136 4.99025 10.1478 4.61427 10.304 4.26271ZM8.31671 3.70119C8.80987 3.70119 9.33233 4.39455 9.24932 5.33693C9.07843 5.38576 8.90264 5.459 8.75128 5.56154C8.80987 5.12697 8.59014 4.58009 8.28253 4.60451C7.87237 4.63869 7.80401 5.63966 8.19464 5.97658C8.24346 6.01564 8.28741 5.96681 7.90655 6.24513C7.14483 5.53224 7.39385 3.70119 8.31671 3.70119ZM7.65264 6.66505C7.95538 6.44044 8.31671 6.17677 8.34112 6.15236C8.57061 5.93751 9.0003 5.459 9.70342 5.459C10.0501 5.459 10.4651 5.5713 10.9681 5.89357C11.2757 6.09376 11.5198 6.10841 12.0716 6.34767C12.4817 6.51857 12.7405 6.8213 12.5843 7.23634C12.4573 7.58302 12.0472 7.93947 11.4759 8.12013C10.9339 8.29591 10.5091 8.90138 9.61065 8.84767C9.42022 8.8379 9.26885 8.79884 9.1419 8.74513C8.75128 8.57423 8.5462 8.23732 8.16534 8.01271C7.74542 7.77833 7.52081 7.5049 7.44757 7.26564C7.37921 7.02638 7.44757 6.82619 7.65264 6.66505ZM7.81378 22.9736C7.68194 24.6875 5.67022 24.6533 4.13702 23.8526C2.67706 23.0811 0.787409 23.5352 0.401667 22.7832C0.28448 22.5537 0.28448 22.1631 0.52862 21.4942V21.4844C0.645808 21.1133 0.557917 20.7031 0.499323 20.3174C0.44073 19.9365 0.411433 19.585 0.543269 19.3408C0.714167 19.0137 0.958308 18.8965 1.26592 18.7891C1.76885 18.6084 1.8421 18.6231 2.22296 18.3057C2.49151 18.0274 2.68682 17.6758 2.9212 17.4268C3.17022 17.1582 3.40948 17.0313 3.78546 17.0899C4.18096 17.1485 4.52276 17.4219 4.85479 17.8711L5.81182 19.6094C6.27569 20.5811 7.91632 21.9727 7.81378 22.9736ZM7.74542 21.709C7.54522 21.3867 7.27667 21.0449 7.04229 20.752C7.38897 20.752 7.73565 20.6445 7.85772 20.3174C7.97003 20.0147 7.85772 19.5899 7.49639 19.1016C6.83721 18.2129 5.62628 17.5147 5.62628 17.5147C4.9671 17.1045 4.596 16.6016 4.4251 16.0547C4.25421 15.5078 4.27862 14.917 4.41046 14.336C4.66436 13.2178 5.31866 12.1289 5.73858 11.4453C5.85089 11.3623 5.77764 11.6016 5.31378 12.461C4.89874 13.2471 4.12237 15.0635 5.18682 16.4844C5.21612 15.4736 5.45538 14.4434 5.86065 13.4815C6.44659 12.1436 7.68194 9.82423 7.7796 7.97853C7.83331 8.01759 8.00421 8.13478 8.08233 8.17873C8.30694 8.31056 8.47784 8.50587 8.69757 8.68165C9.30303 9.16994 10.0892 9.13087 10.7679 8.74025C11.0706 8.56935 11.3148 8.37404 11.5442 8.3008C12.0276 8.14943 12.4134 7.88087 12.6331 7.56837C13.0091 9.05275 13.888 11.1963 14.4495 12.2412C14.7474 12.7979 15.3431 13.9746 15.6019 15.3955C15.763 15.3906 15.9437 15.4151 16.1341 15.4639C16.8079 13.7207 15.5628 11.8408 14.9964 11.3184C14.7669 11.0938 14.7571 10.9961 14.8694 11.001C15.4847 11.5479 16.2952 12.6465 16.5882 13.8818C16.7249 14.4483 16.7493 15.0391 16.6077 15.625C17.4085 15.957 18.3607 16.499 18.1067 17.3242C17.9993 17.3193 17.9505 17.3242 17.9017 17.3242C18.0579 16.8311 17.7112 16.4649 16.7884 16.0498C15.8314 15.6299 15.0306 15.6299 14.9183 16.6602C14.3274 16.8652 14.0247 17.3779 13.8733 17.9932C13.7366 18.5401 13.6976 19.1992 13.6585 19.9414C13.6341 20.3174 13.4827 20.8203 13.3265 21.3574C11.7591 22.4756 9.58136 22.9639 7.74542 21.709ZM20.3138 21.1475C20.2698 21.9678 18.3021 22.1192 17.2278 23.418C16.5833 24.1846 15.7923 24.6094 15.0989 24.6631C14.4056 24.7168 13.805 24.4287 13.4534 23.7207C13.2239 23.1787 13.3362 22.5928 13.5071 21.9483C13.6878 21.2549 13.9564 20.542 13.9905 19.9658C14.0296 19.2236 14.0735 18.5742 14.1956 18.0762C14.3226 17.5733 14.5179 17.2363 14.8646 17.0459C14.8792 17.0361 14.8987 17.0313 14.9134 17.0215C14.9524 17.666 15.2698 18.3203 15.8314 18.4619C16.4466 18.6231 17.3304 18.0957 17.7064 17.666C18.1458 17.6514 18.473 17.6221 18.8099 17.9151C19.2933 18.3301 19.1565 19.3945 19.6448 19.9463C20.1624 20.5127 20.3284 20.8985 20.3138 21.1475ZM7.84307 7.26076C7.94073 7.35353 8.07257 7.48048 8.2337 7.60744C8.55596 7.86134 9.00518 8.12501 9.56671 8.12501C10.1331 8.12501 10.6653 7.83693 11.1194 7.59767C11.3587 7.47072 11.6517 7.25587 11.8421 7.08986C12.0325 6.92384 12.1302 6.78224 11.9935 6.76759C11.8567 6.75294 11.8665 6.89455 11.7005 7.01662C11.4857 7.17287 11.2269 7.37794 11.0218 7.49513C10.6605 7.70021 10.0696 7.99318 9.56182 7.99318C9.05401 7.99318 8.64874 7.7588 8.346 7.51955C8.19464 7.39748 8.06768 7.2754 7.97003 7.18263C7.89678 7.11427 7.87725 6.95802 7.76007 6.94337C7.69171 6.93849 7.67217 7.12404 7.84307 7.26076Z" />
</svg>
