<svg width="16" height="21" viewBox="0 0 16 21" fill="none" xmlns="http://www.w3.org/2000/svg">
<path d="M14.6994 0.0607169L4.70031 3.93651C4.49734 4.0202 4.31999 4.18667 4.19405 4.41173C4.0681 4.6368 4.00013 4.90872 4 5.18797V15.9105C3.67255 15.8062 3.33696 15.7522 3 15.7497C1.34375 15.7497 0 16.9253 0 18.3748C0 19.8244 1.34375 21 3 21C4.65625 21 6 19.8244 6 18.3748V8.78976L14 5.71341V13.2857C13.6726 13.1811 13.337 13.127 13 13.1245C11.3438 13.1245 10 14.3001 10 15.7497C10 17.1993 11.3438 18.3748 13 18.3748C14.6562 18.3748 16 17.1997 16 15.7497V1.31136C15.9999 1.1053 15.9627 0.90218 15.8917 0.71844C15.8206 0.534701 15.7176 0.375502 15.591 0.253728C15.4643 0.131955 15.3176 0.0510271 15.1627 0.0174956C15.0078 -0.0160359 14.8491 -0.00122934 14.6994 0.0607169Z" />
</svg>
