<svg id="svg" version="1.1" xmlns="http://www.w3.org/2000/svg" xmlns:xlink="http://www.w3.org/1999/xlink" width="400" height="159.02140672782875" viewBox="0, 0, 400,159.02140672782875">
    <g id="svgg">
        <path id="path0" d="M267.920 1.074 C 267.081 2.140,267.074 2.405,267.074 33.068 C 267.074 70.214,268.156 66.461,259.016 61.035 C 255.455 58.920,254.067 58.308,252.832 58.308 C 250.648 58.308,211.962 81.050,210.490 83.198 L 209.564 84.552 209.675 108.935 L 209.786 133.318 211.009 134.486 C 213.453 136.819,251.241 158.791,252.817 158.795 C 254.401 158.799,292.171 136.833,294.597 134.496 L 295.821 133.318 295.923 74.916 C 296.023 18.040,296.006 16.480,295.247 15.240 C 294.447 13.932,270.817 0.000,269.399 -0.000 C 269.050 -0.000,268.384 0.483,267.920 1.074 M41.386 57.560 C 32.664 62.381,2.704 80.385,1.733 81.390 L 0.408 82.761 0.408 114.480 C 0.408 148.927,0.348 148.012,2.596 148.012 C 3.632 148.012,26.150 134.989,27.727 133.478 L 28.746 132.501 28.950 116.282 C 29.192 96.999,28.438 99.213,36.353 94.575 C 43.806 90.207,43.441 90.210,50.561 94.474 C 58.530 99.246,57.660 96.726,57.900 115.740 C 58.070 129.175,58.207 132.064,58.716 132.841 C 59.456 133.974,83.161 148.012,84.333 148.012 C 86.391 148.012,86.317 149.055,86.642 115.667 C 86.957 83.310,86.924 82.464,85.306 81.029 C 84.922 80.689,75.719 75.162,64.855 68.747 C 44.250 56.581,43.663 56.302,41.386 57.560 M127.013 69.120 C 116.249 75.501,106.937 81.278,106.320 81.958 L 105.199 83.193 105.199 107.429 C 105.199 132.877,105.216 133.124,107.031 134.314 C 109.826 136.145,145.583 157.195,146.690 157.661 C 147.465 157.987,148.478 158.105,149.121 157.943 C 150.974 157.478,189.742 134.302,190.622 133.133 C 191.904 131.430,191.897 83.998,190.614 82.237 C 189.130 80.200,150.203 57.490,148.223 57.505 C 146.819 57.517,143.791 59.174,127.013 69.120 M353.109 59.214 C 332.426 71.171,315.091 81.780,314.561 82.803 C 314.058 83.776,313.965 87.730,313.965 108.230 L 313.965 132.505 315.087 133.708 C 317.024 135.788,355.185 157.798,356.853 157.798 C 358.259 157.798,382.170 144.621,382.968 143.407 C 383.146 143.137,383.243 142.368,383.185 141.699 C 383.061 140.280,384.365 141.117,359.633 126.583 C 350.550 121.245,342.984 116.681,342.820 116.441 C 342.106 115.401,342.469 99.650,343.221 98.996 C 344.782 97.639,355.908 91.335,356.744 91.335 C 357.569 91.335,368.723 97.632,370.336 99.008 C 370.960 99.540,371.050 100.424,371.050 105.987 C 371.050 113.022,371.375 114.169,373.371 114.169 C 374.587 114.169,396.681 101.246,398.573 99.429 L 399.796 98.254 399.930 91.227 C 400.080 83.380,399.861 82.472,397.439 80.904 C 390.771 76.590,358.481 57.797,357.472 57.644 C 356.455 57.490,355.494 57.835,353.109 59.214 M260.105 95.869 L 267.090 99.995 266.980 108.603 L 266.871 117.210 260.143 121.191 C 252.018 125.999,253.557 125.998,245.455 121.194 L 238.736 117.210 238.626 108.595 L 238.516 99.981 245.354 95.882 C 253.607 90.935,251.754 90.936,260.105 95.869 M351.994 98.809 L 347.006 101.733 346.999 107.655 L 346.993 113.578 351.773 116.422 C 357.538 119.853,356.426 119.853,362.203 116.416 L 366.993 113.565 366.881 107.654 L 366.769 101.742 363.099 99.557 C 361.081 98.356,358.879 97.038,358.206 96.629 L 356.983 95.885 351.994 98.809 " stroke="none" fill-rule="evenodd"></path>
    </g>
</svg>