<svg id="svg" version="1.1" xmlns="http://www.w3.org/2000/svg" xmlns:xlink="http://www.w3.org/1999/xlink" width="400" height="400" viewBox="0, 0, 400,400">
    <g id="svgg">
        <path id="path0" d="M271.667 25.492 C 251.580 28.796,225.347 44.055,203.257 65.285 L 200.347 68.081 199.090 66.984 C 198.399 66.380,196.483 64.652,194.833 63.143 C 158.371 29.790,120.182 16.949,99.293 31.016 C 79.311 44.472,73.919 83.016,85.269 131.256 C 85.626 132.771,85.824 134.067,85.709 134.136 C 85.594 134.204,84.301 134.594,82.835 135.003 C 41.810 146.454,8.629 168.955,1.459 190.185 C -7.605 217.025,26.077 248.797,81.333 265.530 C 83.625 266.224,85.528 266.804,85.563 266.820 C 85.597 266.835,85.260 268.393,84.814 270.281 C 74.645 313.308,78.281 348.986,94.484 365.182 C 111.917 382.607,145.119 376.551,180.967 349.408 C 186.138 345.492,191.222 341.244,196.598 336.345 L 200.696 332.612 203.561 335.222 C 238.628 367.181,270.394 380.743,292.537 373.211 C 318.157 364.495,327.800 324.410,316.684 272.832 C 315.941 269.385,315.334 266.400,315.336 266.199 C 315.337 265.998,316.988 265.344,319.006 264.746 C 358.979 252.896,391.429 230.343,398.495 209.500 C 407.562 182.752,377.274 154.361,320.250 136.156 C 316.996 135.117,314.333 134.220,314.333 134.163 C 314.333 134.106,314.700 132.508,315.147 130.613 C 326.994 80.446,318.982 38.623,295.484 27.969 C 289.602 25.301,279.325 24.233,271.667 25.492 M284.969 42.513 C 301.121 46.321,307.434 75.625,300.651 115.313 C 299.748 120.595,297.836 129.608,297.560 129.884 C 297.498 129.946,295.433 129.556,292.971 129.018 C 280.391 126.268,263.456 123.608,249.720 122.225 C 247.275 121.978,245.175 121.625,245.054 121.439 C 240.018 113.716,225.949 95.907,216.540 85.343 L 212.243 80.520 215.138 77.758 C 240.417 53.645,269.634 38.899,284.969 42.513 M128.134 43.323 C 144.603 47.043,172.051 63.899,186.963 79.449 L 188.093 80.628 186.120 82.730 C 177.479 91.938,164.222 108.357,156.357 119.590 C 155.544 120.752,154.584 121.742,154.197 121.819 C 153.814 121.895,150.425 122.273,146.667 122.659 C 135.046 123.853,120.697 126.087,109.009 128.523 C 105.989 129.152,103.274 129.667,102.975 129.667 C 102.051 129.667,98.805 113.676,97.529 102.833 C 94.010 72.946,99.114 49.917,110.500 44.310 C 114.761 42.211,121.536 41.832,128.134 43.323 M207.170 100.724 C 211.929 106.219,215.752 110.902,220.819 117.444 L 223.099 120.389 221.466 120.120 C 219.382 119.776,180.258 119.771,178.561 120.114 C 177.400 120.349,177.318 120.319,177.615 119.769 C 178.557 118.026,190.498 103.544,197.134 96.096 L 200.167 92.692 201.167 93.820 C 201.717 94.441,204.418 97.548,207.170 100.724 M222.333 137.377 C 226.642 137.575,231.424 137.833,232.961 137.952 L 235.756 138.167 239.899 144.500 C 250.301 160.402,259.476 176.178,268.284 193.308 L 271.613 199.783 269.430 204.142 C 259.911 223.142,248.432 242.961,236.666 260.707 C 235.745 262.097,236.235 262.024,223.333 262.695 C 210.120 263.381,172.641 263.023,165.774 262.145 L 164.382 261.966 159.408 254.400 C 149.959 240.025,140.667 223.965,132.354 207.644 L 128.542 200.158 132.384 192.496 C 144.195 168.938,162.944 138.000,165.409 138.000 C 166.015 138.000,168.909 137.838,171.839 137.640 C 185.268 136.731,205.902 136.624,222.333 137.377 M142.000 140.497 C 142.000 140.587,140.704 142.725,139.119 145.247 C 135.069 151.696,129.082 162.001,124.837 169.833 C 122.850 173.500,120.820 177.226,120.327 178.113 L 119.430 179.725 117.710 175.541 C 113.850 166.153,107.031 146.858,107.432 146.457 C 107.946 145.943,127.342 142.423,138.167 140.881 C 140.000 140.619,141.612 140.389,141.750 140.369 C 141.887 140.350,142.000 140.407,142.000 140.497 M263.667 141.183 C 271.318 142.228,292.481 146.083,292.953 146.518 C 293.517 147.038,281.416 179.333,280.656 179.333 C 280.507 179.333,279.525 177.721,278.473 175.750 C 273.541 166.509,266.726 154.703,260.982 145.453 C 257.576 139.967,257.716 140.302,258.917 140.505 C 259.421 140.590,261.558 140.895,263.667 141.183 M91.461 153.583 C 95.599 166.539,101.018 180.795,106.820 193.993 C 108.330 197.427,109.316 200.096,109.222 200.493 C 109.133 200.864,107.476 204.810,105.539 209.263 C 101.008 219.677,97.352 229.165,93.361 240.862 L 90.167 250.223 88.833 249.806 C 44.505 235.949,22.183 221.101,17.566 202.398 C 14.292 189.134,34.610 171.569,68.977 157.955 C 74.564 155.741,87.822 151.244,90.348 150.705 C 90.448 150.684,90.949 151.979,91.461 153.583 M318.583 153.621 C 356.436 166.154,383.000 185.117,383.000 199.605 C 383.000 214.859,352.009 236.729,314.167 248.180 C 312.517 248.680,311.005 249.150,310.807 249.225 C 310.609 249.300,310.255 248.717,310.021 247.930 C 307.316 238.850,299.230 218.341,293.152 205.146 L 290.651 199.717 292.869 194.775 C 298.252 182.782,303.913 168.272,307.671 156.833 C 308.635 153.900,309.487 151.387,309.565 151.250 C 309.830 150.781,310.671 151.002,318.583 153.621 M195.167 164.381 C 171.351 167.406,157.190 193.438,167.498 215.245 C 180.379 242.496,218.882 242.846,232.170 215.833 C 244.865 190.025,223.806 160.743,195.167 164.381 M283.256 225.333 C 287.782 236.037,293.967 253.183,293.468 253.641 C 292.753 254.297,272.768 257.923,262.451 259.269 L 257.735 259.884 259.431 257.192 C 265.062 248.255,275.220 230.569,279.585 222.104 C 280.264 220.787,280.845 219.737,280.876 219.771 C 280.906 219.805,281.978 222.308,283.256 225.333 M131.215 241.617 C 133.498 245.532,136.986 251.331,138.966 254.505 C 142.564 260.272,142.565 260.275,141.533 260.136 C 140.965 260.059,138.100 259.692,135.167 259.320 C 127.411 258.337,107.651 254.936,107.062 254.482 C 106.699 254.203,112.650 237.327,116.727 227.075 L 119.415 220.316 123.240 227.408 C 125.343 231.309,128.932 237.703,131.215 241.617 M300.002 276.917 C 304.344 296.923,305.083 311.898,302.656 330.747 C 301.349 340.903,298.417 347.306,292.294 353.382 C 280.116 365.465,249.374 353.542,217.075 324.210 L 212.718 320.253 216.722 315.710 C 224.824 306.516,234.696 293.975,242.108 283.463 L 245.659 278.425 248.913 278.190 C 261.261 277.296,279.322 274.443,298.370 270.377 C 298.481 270.353,299.216 273.296,300.002 276.917 M107.733 272.016 C 121.778 274.814,140.429 277.443,151.588 278.198 L 155.010 278.429 158.663 283.465 C 166.117 293.739,175.025 304.778,183.976 314.833 L 188.723 320.167 187.587 321.167 C 186.962 321.717,184.587 323.874,182.309 325.960 C 164.565 342.207,139.491 356.204,125.500 357.671 C 120.369 358.209,111.914 356.789,109.200 354.935 C 96.073 345.966,92.616 314.945,100.648 278.197 C 101.769 273.070,102.300 271.000,102.496 271.000 C 102.571 271.000,104.928 271.457,107.733 272.016 M222.150 281.417 C 218.379 286.716,209.856 297.262,203.950 303.936 L 200.614 307.706 198.699 305.603 C 192.034 298.284,177.667 280.903,177.667 280.159 C 177.667 280.086,184.679 280.104,193.250 280.199 C 205.628 280.336,219.505 280.111,222.948 279.718 C 223.200 279.689,222.852 280.431,222.150 281.417 " stroke="none" fill-rule="evenodd"></path>
    </g>
</svg>