<svg width="47" height="35" viewBox="0 0 47 35" fill="none" xmlns="http://www.w3.org/2000/svg">
<path d="M15.2751 24.0625C15.0996 24.0625 14.9241 24.0864 14.7566 24.137C13.8049 24.4248 12.8039 24.6094 11.7501 24.6094C10.6963 24.6094 9.69531 24.4248 8.74283 24.137C8.57539 24.0864 8.40061 24.0625 8.2251 24.0625C3.66758 24.0625 -0.0241157 27.5133 0.000118636 31.7611C0.0103999 33.5563 1.59591 35 3.52511 35H19.9751C21.9043 35 23.4898 33.5563 23.5001 31.7611C23.5243 27.5133 19.8326 24.0625 15.2751 24.0625ZM11.7501 21.875C15.6437 21.875 18.8001 18.9369 18.8001 15.3125C18.8001 11.6881 15.6437 8.75 11.7501 8.75C7.85644 8.75 4.70011 11.6881 4.70011 15.3125C4.70011 18.9369 7.85644 21.875 11.7501 21.875ZM43.475 0H15.2751C13.3312 0 11.7501 1.521 11.7501 3.38994V6.5625C13.47 6.5625 15.0621 7.02598 16.4501 7.7793V4.375H42.3V24.0625H37.6V19.6875H28.2V24.0625H22.6012C24.0038 25.2034 25.0334 26.7101 25.5159 28.4375H43.475C45.4189 28.4375 47 26.9165 47 25.0476V3.38994C47 1.521 45.4189 0 43.475 0Z" />
</svg>
