<svg width="22" height="25" viewBox="0 0 22 25" fill="none" xmlns="http://www.w3.org/2000/svg">
<path d="M15.8887 14.1211L10.9375 19.0723L5.98633 14.1211C2.63672 14.4189 0 17.1973 0 20.625V22.6562C0 23.9502 1.0498 25 2.34375 25H19.5312C20.8252 25 21.875 23.9502 21.875 22.6562V20.625C21.875 17.1973 19.2383 14.4189 15.8887 14.1211ZM1.5625 9.375C2.89551 9.375 4.0918 8.81348 4.94141 7.9248C5.67871 10.5566 8.06641 12.5 10.9375 12.5C14.3896 12.5 17.1875 9.70215 17.1875 6.25C17.1875 2.79785 14.3896 0 10.9375 0C8.47656 0 6.36719 1.43555 5.34668 3.50586C4.49707 2.33398 3.125 1.5625 1.5625 1.5625C1.5625 3.19336 2.39746 4.62891 3.66699 5.46875C2.39746 6.30859 1.5625 7.74414 1.5625 9.375ZM8.59375 4.6875H13.2812C14.1455 4.6875 14.8438 5.38574 14.8438 6.25H7.03125C7.03125 5.38574 7.72949 4.6875 8.59375 4.6875Z" />
</svg>
