<svg id="visual" viewBox="0 0 900 600" width="900" height="600" xmlns="http://www.w3.org/2000/svg" xmlns:xlink="http://www.w3.org/1999/xlink" version="1.1"><path d="M0 360L13.7 366.7C27.3 373.3 54.7 386.7 82 398.7C109.3 410.7 136.7 421.3 163.8 418C191 414.7 218 397.3 245.2 393.8C272.3 390.3 299.7 400.7 327 411.8C354.3 423 381.7 435 409 427.2C436.3 419.3 463.7 391.7 491 385.5C518.3 379.3 545.7 394.7 573 403C600.3 411.3 627.7 412.7 654.8 408C682 403.3 709 392.7 736.2 398.5C763.3 404.3 790.7 426.7 818 429.5C845.3 432.3 872.7 415.7 886.3 407.3L900 399L900 601L886.3 601C872.7 601 845.3 601 818 601C790.7 601 763.3 601 736.2 601C709 601 682 601 654.8 601C627.7 601 600.3 601 573 601C545.7 601 518.3 601 491 601C463.7 601 436.3 601 409 601C381.7 601 354.3 601 327 601C299.7 601 272.3 601 245.2 601C218 601 191 601 163.8 601C136.7 601 109.3 601 82 601C54.7 601 27.3 601 13.7 601L0 601Z" fill="#ffd4c5"></path><path d="M0 443L13.7 441.5C27.3 440 54.7 437 82 433.8C109.3 430.7 136.7 427.3 163.8 422.7C191 418 218 412 245.2 421.8C272.3 431.7 299.7 457.3 327 464C354.3 470.7 381.7 458.3 409 453.8C436.3 449.3 463.7 452.7 491 458C518.3 463.3 545.7 470.7 573 465.2C600.3 459.7 627.7 441.3 654.8 436.2C682 431 709 439 736.2 431.5C763.3 424 790.7 401 818 395C845.3 389 872.7 400 886.3 405.5L900 411L900 601L886.3 601C872.7 601 845.3 601 818 601C790.7 601 763.3 601 736.2 601C709 601 682 601 654.8 601C627.7 601 600.3 601 573 601C545.7 601 518.3 601 491 601C463.7 601 436.3 601 409 601C381.7 601 354.3 601 327 601C299.7 601 272.3 601 245.2 601C218 601 191 601 163.8 601C136.7 601 109.3 601 82 601C54.7 601 27.3 601 13.7 601L0 601Z" fill="#fdbfa9"></path><path d="M0 434L13.7 433.8C27.3 433.7 54.7 433.3 82 445C109.3 456.7 136.7 480.3 163.8 481C191 481.7 218 459.3 245.2 448C272.3 436.7 299.7 436.3 327 434.5C354.3 432.7 381.7 429.3 409 427.7C436.3 426 463.7 426 491 428C518.3 430 545.7 434 573 441.2C600.3 448.3 627.7 458.7 654.8 468.7C682 478.7 709 488.3 736.2 481.8C763.3 475.3 790.7 452.7 818 451.7C845.3 450.7 872.7 471.3 886.3 481.7L900 492L900 601L886.3 601C872.7 601 845.3 601 818 601C790.7 601 763.3 601 736.2 601C709 601 682 601 654.8 601C627.7 601 600.3 601 573 601C545.7 601 518.3 601 491 601C463.7 601 436.3 601 409 601C381.7 601 354.3 601 327 601C299.7 601 272.3 601 245.2 601C218 601 191 601 163.8 601C136.7 601 109.3 601 82 601C54.7 601 27.3 601 13.7 601L0 601Z" fill="#faa98e"></path><path d="M0 491L13.7 497.3C27.3 503.7 54.7 516.3 82 517C109.3 517.7 136.7 506.3 163.8 505.2C191 504 218 513 245.2 513.3C272.3 513.7 299.7 505.3 327 506.2C354.3 507 381.7 517 409 518.5C436.3 520 463.7 513 491 505.2C518.3 497.3 545.7 488.7 573 487C600.3 485.3 627.7 490.7 654.8 496C682 501.3 709 506.7 736.2 503C763.3 499.3 790.7 486.7 818 478.8C845.3 471 872.7 468 886.3 466.5L900 465L900 601L886.3 601C872.7 601 845.3 601 818 601C790.7 601 763.3 601 736.2 601C709 601 682 601 654.8 601C627.7 601 600.3 601 573 601C545.7 601 518.3 601 491 601C463.7 601 436.3 601 409 601C381.7 601 354.3 601 327 601C299.7 601 272.3 601 245.2 601C218 601 191 601 163.8 601C136.7 601 109.3 601 82 601C54.7 601 27.3 601 13.7 601L0 601Z" fill="#f69374"></path><path d="M0 517L13.7 518.7C27.3 520.3 54.7 523.7 82 523.3C109.3 523 136.7 519 163.8 513.7C191 508.3 218 501.7 245.2 508.8C272.3 516 299.7 537 327 540.8C354.3 544.7 381.7 531.3 409 527.7C436.3 524 463.7 530 491 534.7C518.3 539.3 545.7 542.7 573 538.5C600.3 534.3 627.7 522.7 654.8 519.7C682 516.7 709 522.3 736.2 521.2C763.3 520 790.7 512 818 515.7C845.3 519.3 872.7 534.7 886.3 542.3L900 550L900 601L886.3 601C872.7 601 845.3 601 818 601C790.7 601 763.3 601 736.2 601C709 601 682 601 654.8 601C627.7 601 600.3 601 573 601C545.7 601 518.3 601 491 601C463.7 601 436.3 601 409 601C381.7 601 354.3 601 327 601C299.7 601 272.3 601 245.2 601C218 601 191 601 163.8 601C136.7 601 109.3 601 82 601C54.7 601 27.3 601 13.7 601L0 601Z" fill="#f07c5b"></path><path d="M0 542L13.7 546.7C27.3 551.3 54.7 560.7 82 563.2C109.3 565.7 136.7 561.3 163.8 554.7C191 548 218 539 245.2 537.8C272.3 536.7 299.7 543.3 327 548.7C354.3 554 381.7 558 409 557.5C436.3 557 463.7 552 491 553.2C518.3 554.3 545.7 561.7 573 567.2C600.3 572.7 627.7 576.3 654.8 576.8C682 577.3 709 574.7 736.2 572C763.3 569.3 790.7 566.7 818 562.3C845.3 558 872.7 552 886.3 549L900 546L900 601L886.3 601C872.7 601 845.3 601 818 601C790.7 601 763.3 601 736.2 601C709 601 682 601 654.8 601C627.7 601 600.3 601 573 601C545.7 601 518.3 601 491 601C463.7 601 436.3 601 409 601C381.7 601 354.3 601 327 601C299.7 601 272.3 601 245.2 601C218 601 191 601 163.8 601C136.7 601 109.3 601 82 601C54.7 601 27.3 601 13.7 601L0 601Z" fill="#e96443"></path></svg>