<svg id="visual" viewBox="0 0 900 600" width="900" height="600" xmlns="http://www.w3.org/2000/svg" xmlns:xlink="http://www.w3.org/1999/xlink" version="1.1"><path d="M0 410L13.7 401.5C27.3 393 54.7 376 82 374.3C109.3 372.7 136.7 386.3 163.8 383.8C191 381.3 218 362.7 245.2 370.5C272.3 378.3 299.7 412.7 327 419.2C354.3 425.7 381.7 404.3 409 391.2C436.3 378 463.7 373 491 384C518.3 395 545.7 422 573 436.3C600.3 450.7 627.7 452.3 654.8 443.5C682 434.7 709 415.3 736.2 399.3C763.3 383.3 790.7 370.7 818 373.5C845.3 376.3 872.7 394.7 886.3 403.8L900 413L900 601L886.3 601C872.7 601 845.3 601 818 601C790.7 601 763.3 601 736.2 601C709 601 682 601 654.8 601C627.7 601 600.3 601 573 601C545.7 601 518.3 601 491 601C463.7 601 436.3 601 409 601C381.7 601 354.3 601 327 601C299.7 601 272.3 601 245.2 601C218 601 191 601 163.8 601C136.7 601 109.3 601 82 601C54.7 601 27.3 601 13.7 601L0 601Z" fill="#ffd4c5"></path><path d="M0 419L13.7 414.3C27.3 409.7 54.7 400.3 82 397.8C109.3 395.3 136.7 399.7 163.8 407.7C191 415.7 218 427.3 245.2 423.5C272.3 419.7 299.7 400.3 327 396.3C354.3 392.3 381.7 403.7 409 415.3C436.3 427 463.7 439 491 432C518.3 425 545.7 399 573 391C600.3 383 627.7 393 654.8 394.7C682 396.3 709 389.7 736.2 401.7C763.3 413.7 790.7 444.3 818 456.5C845.3 468.7 872.7 462.3 886.3 459.2L900 456L900 601L886.3 601C872.7 601 845.3 601 818 601C790.7 601 763.3 601 736.2 601C709 601 682 601 654.8 601C627.7 601 600.3 601 573 601C545.7 601 518.3 601 491 601C463.7 601 436.3 601 409 601C381.7 601 354.3 601 327 601C299.7 601 272.3 601 245.2 601C218 601 191 601 163.8 601C136.7 601 109.3 601 82 601C54.7 601 27.3 601 13.7 601L0 601Z" fill="#fdbfa9"></path><path d="M0 419L13.7 418.8C27.3 418.7 54.7 418.3 82 421.5C109.3 424.7 136.7 431.3 163.8 437C191 442.7 218 447.3 245.2 453C272.3 458.7 299.7 465.3 327 465C354.3 464.7 381.7 457.3 409 453.3C436.3 449.3 463.7 448.7 491 445C518.3 441.3 545.7 434.7 573 439.8C600.3 445 627.7 462 654.8 463.5C682 465 709 451 736.2 455.7C763.3 460.3 790.7 483.7 818 489.2C845.3 494.7 872.7 482.3 886.3 476.2L900 470L900 601L886.3 601C872.7 601 845.3 601 818 601C790.7 601 763.3 601 736.2 601C709 601 682 601 654.8 601C627.7 601 600.3 601 573 601C545.7 601 518.3 601 491 601C463.7 601 436.3 601 409 601C381.7 601 354.3 601 327 601C299.7 601 272.3 601 245.2 601C218 601 191 601 163.8 601C136.7 601 109.3 601 82 601C54.7 601 27.3 601 13.7 601L0 601Z" fill="#faa98e"></path><path d="M0 516L13.7 509.8C27.3 503.7 54.7 491.3 82 480.8C109.3 470.3 136.7 461.7 163.8 468.3C191 475 218 497 245.2 497.7C272.3 498.3 299.7 477.7 327 468.5C354.3 459.3 381.7 461.7 409 470C436.3 478.3 463.7 492.7 491 499.3C518.3 506 545.7 505 573 509.5C600.3 514 627.7 524 654.8 525.8C682 527.7 709 521.3 736.2 514C763.3 506.7 790.7 498.3 818 501C845.3 503.7 872.7 517.3 886.3 524.2L900 531L900 601L886.3 601C872.7 601 845.3 601 818 601C790.7 601 763.3 601 736.2 601C709 601 682 601 654.8 601C627.7 601 600.3 601 573 601C545.7 601 518.3 601 491 601C463.7 601 436.3 601 409 601C381.7 601 354.3 601 327 601C299.7 601 272.3 601 245.2 601C218 601 191 601 163.8 601C136.7 601 109.3 601 82 601C54.7 601 27.3 601 13.7 601L0 601Z" fill="#f69374"></path><path d="M0 504L13.7 511.7C27.3 519.3 54.7 534.7 82 539.8C109.3 545 136.7 540 163.8 540.7C191 541.3 218 547.7 245.2 550.3C272.3 553 299.7 552 327 550.2C354.3 548.3 381.7 545.7 409 542.8C436.3 540 463.7 537 491 527.7C518.3 518.3 545.7 502.7 573 506.3C600.3 510 627.7 533 654.8 535.2C682 537.3 709 518.7 736.2 512.3C763.3 506 790.7 512 818 519.8C845.3 527.7 872.7 537.3 886.3 542.2L900 547L900 601L886.3 601C872.7 601 845.3 601 818 601C790.7 601 763.3 601 736.2 601C709 601 682 601 654.8 601C627.7 601 600.3 601 573 601C545.7 601 518.3 601 491 601C463.7 601 436.3 601 409 601C381.7 601 354.3 601 327 601C299.7 601 272.3 601 245.2 601C218 601 191 601 163.8 601C136.7 601 109.3 601 82 601C54.7 601 27.3 601 13.7 601L0 601Z" fill="#f07c5b"></path><path d="M0 560L13.7 560.7C27.3 561.3 54.7 562.7 82 563.8C109.3 565 136.7 566 163.8 568.8C191 571.7 218 576.3 245.2 574C272.3 571.7 299.7 562.3 327 553.8C354.3 545.3 381.7 537.7 409 540.2C436.3 542.7 463.7 555.3 491 561.7C518.3 568 545.7 568 573 570.5C600.3 573 627.7 578 654.8 576.3C682 574.7 709 566.3 736.2 564.5C763.3 562.7 790.7 567.3 818 567.8C845.3 568.3 872.7 564.7 886.3 562.8L900 561L900 601L886.3 601C872.7 601 845.3 601 818 601C790.7 601 763.3 601 736.2 601C709 601 682 601 654.8 601C627.7 601 600.3 601 573 601C545.7 601 518.3 601 491 601C463.7 601 436.3 601 409 601C381.7 601 354.3 601 327 601C299.7 601 272.3 601 245.2 601C218 601 191 601 163.8 601C136.7 601 109.3 601 82 601C54.7 601 27.3 601 13.7 601L0 601Z" fill="#e96443"></path></svg>