<svg id="visual" viewBox="0 0 900 600" width="900" height="600" xmlns="http://www.w3.org/2000/svg" xmlns:xlink="http://www.w3.org/1999/xlink" version="1.1"><path d="M0 362L13.7 367.8C27.3 373.7 54.7 385.3 82 390.5C109.3 395.7 136.7 394.3 163.8 391.3C191 388.3 218 383.7 245.2 394.8C272.3 406 299.7 433 327 430.8C354.3 428.7 381.7 397.3 409 394.5C436.3 391.7 463.7 417.3 491 429.7C518.3 442 545.7 441 573 435.3C600.3 429.7 627.7 419.3 654.8 413.5C682 407.7 709 406.3 736.2 412.5C763.3 418.7 790.7 432.3 818 437.3C845.3 442.3 872.7 438.7 886.3 436.8L900 435L900 601L886.3 601C872.7 601 845.3 601 818 601C790.7 601 763.3 601 736.2 601C709 601 682 601 654.8 601C627.7 601 600.3 601 573 601C545.7 601 518.3 601 491 601C463.7 601 436.3 601 409 601C381.7 601 354.3 601 327 601C299.7 601 272.3 601 245.2 601C218 601 191 601 163.8 601C136.7 601 109.3 601 82 601C54.7 601 27.3 601 13.7 601L0 601Z" fill="#ffd4c5"></path><path d="M0 478L13.7 463C27.3 448 54.7 418 82 404.5C109.3 391 136.7 394 163.8 408.5C191 423 218 449 245.2 449.7C272.3 450.3 299.7 425.7 327 424.8C354.3 424 381.7 447 409 449.7C436.3 452.3 463.7 434.7 491 426.5C518.3 418.3 545.7 419.7 573 425.2C600.3 430.7 627.7 440.3 654.8 445.7C682 451 709 452 736.2 448.7C763.3 445.3 790.7 437.7 818 442.5C845.3 447.3 872.7 464.7 886.3 473.3L900 482L900 601L886.3 601C872.7 601 845.3 601 818 601C790.7 601 763.3 601 736.2 601C709 601 682 601 654.8 601C627.7 601 600.3 601 573 601C545.7 601 518.3 601 491 601C463.7 601 436.3 601 409 601C381.7 601 354.3 601 327 601C299.7 601 272.3 601 245.2 601C218 601 191 601 163.8 601C136.7 601 109.3 601 82 601C54.7 601 27.3 601 13.7 601L0 601Z" fill="#fdbfa9"></path><path d="M0 434L13.7 439.2C27.3 444.3 54.7 454.7 82 456.8C109.3 459 136.7 453 163.8 445C191 437 218 427 245.2 424.5C272.3 422 299.7 427 327 434.3C354.3 441.7 381.7 451.3 409 457.8C436.3 464.3 463.7 467.7 491 466.3C518.3 465 545.7 459 573 460.7C600.3 462.3 627.7 471.7 654.8 467.8C682 464 709 447 736.2 451C763.3 455 790.7 480 818 480C845.3 480 872.7 455 886.3 442.5L900 430L900 601L886.3 601C872.7 601 845.3 601 818 601C790.7 601 763.3 601 736.2 601C709 601 682 601 654.8 601C627.7 601 600.3 601 573 601C545.7 601 518.3 601 491 601C463.7 601 436.3 601 409 601C381.7 601 354.3 601 327 601C299.7 601 272.3 601 245.2 601C218 601 191 601 163.8 601C136.7 601 109.3 601 82 601C54.7 601 27.3 601 13.7 601L0 601Z" fill="#faa98e"></path><path d="M0 475L13.7 478.3C27.3 481.7 54.7 488.3 82 491.8C109.3 495.3 136.7 495.7 163.8 494.7C191 493.7 218 491.3 245.2 486C272.3 480.7 299.7 472.3 327 467.7C354.3 463 381.7 462 409 472C436.3 482 463.7 503 491 512.5C518.3 522 545.7 520 573 518.8C600.3 517.7 627.7 517.3 654.8 513.5C682 509.7 709 502.3 736.2 504.7C763.3 507 790.7 519 818 518.2C845.3 517.3 872.7 503.7 886.3 496.8L900 490L900 601L886.3 601C872.7 601 845.3 601 818 601C790.7 601 763.3 601 736.2 601C709 601 682 601 654.8 601C627.7 601 600.3 601 573 601C545.7 601 518.3 601 491 601C463.7 601 436.3 601 409 601C381.7 601 354.3 601 327 601C299.7 601 272.3 601 245.2 601C218 601 191 601 163.8 601C136.7 601 109.3 601 82 601C54.7 601 27.3 601 13.7 601L0 601Z" fill="#f69374"></path><path d="M0 498L13.7 505C27.3 512 54.7 526 82 528C109.3 530 136.7 520 163.8 515.8C191 511.7 218 513.3 245.2 512.2C272.3 511 299.7 507 327 508.7C354.3 510.3 381.7 517.7 409 518.3C436.3 519 463.7 513 491 511C518.3 509 545.7 511 573 519.2C600.3 527.3 627.7 541.7 654.8 547.8C682 554 709 552 736.2 540.7C763.3 529.3 790.7 508.7 818 509.7C845.3 510.7 872.7 533.3 886.3 544.7L900 556L900 601L886.3 601C872.7 601 845.3 601 818 601C790.7 601 763.3 601 736.2 601C709 601 682 601 654.8 601C627.7 601 600.3 601 573 601C545.7 601 518.3 601 491 601C463.7 601 436.3 601 409 601C381.7 601 354.3 601 327 601C299.7 601 272.3 601 245.2 601C218 601 191 601 163.8 601C136.7 601 109.3 601 82 601C54.7 601 27.3 601 13.7 601L0 601Z" fill="#f07c5b"></path><path d="M0 528L13.7 532C27.3 536 54.7 544 82 546.2C109.3 548.3 136.7 544.7 163.8 545.8C191 547 218 553 245.2 559.7C272.3 566.3 299.7 573.7 327 575C354.3 576.3 381.7 571.7 409 567.7C436.3 563.7 463.7 560.3 491 555C518.3 549.7 545.7 542.3 573 539.3C600.3 536.3 627.7 537.7 654.8 539.8C682 542 709 545 736.2 543.8C763.3 542.7 790.7 537.3 818 538.5C845.3 539.7 872.7 547.3 886.3 551.2L900 555L900 601L886.3 601C872.7 601 845.3 601 818 601C790.7 601 763.3 601 736.2 601C709 601 682 601 654.8 601C627.7 601 600.3 601 573 601C545.7 601 518.3 601 491 601C463.7 601 436.3 601 409 601C381.7 601 354.3 601 327 601C299.7 601 272.3 601 245.2 601C218 601 191 601 163.8 601C136.7 601 109.3 601 82 601C54.7 601 27.3 601 13.7 601L0 601Z" fill="#e96443"></path></svg>