<svg id="visual" viewBox="0 0 900 600" width="900" height="600" xmlns="http://www.w3.org/2000/svg" xmlns:xlink="http://www.w3.org/1999/xlink" version="1.1"><path d="M0 347L13.7 352.2C27.3 357.3 54.7 367.7 82 384.2C109.3 400.7 136.7 423.3 163.8 426.5C191 429.7 218 413.3 245.2 408.3C272.3 403.3 299.7 409.7 327 410.5C354.3 411.3 381.7 406.7 409 408.8C436.3 411 463.7 420 491 420.2C518.3 420.3 545.7 411.7 573 412.2C600.3 412.7 627.7 422.3 654.8 417.8C682 413.3 709 394.7 736.2 385.3C763.3 376 790.7 376 818 371.7C845.3 367.3 872.7 358.7 886.3 354.3L900 350L900 601L886.3 601C872.7 601 845.3 601 818 601C790.7 601 763.3 601 736.2 601C709 601 682 601 654.8 601C627.7 601 600.3 601 573 601C545.7 601 518.3 601 491 601C463.7 601 436.3 601 409 601C381.7 601 354.3 601 327 601C299.7 601 272.3 601 245.2 601C218 601 191 601 163.8 601C136.7 601 109.3 601 82 601C54.7 601 27.3 601 13.7 601L0 601Z" fill="#ffd4c5"></path><path d="M0 434L13.7 436.7C27.3 439.3 54.7 444.7 82 439.8C109.3 435 136.7 420 163.8 408C191 396 218 387 245.2 399.7C272.3 412.3 299.7 446.7 327 447.2C354.3 447.7 381.7 414.3 409 396.5C436.3 378.7 463.7 376.3 491 379.7C518.3 383 545.7 392 573 400.5C600.3 409 627.7 417 654.8 423C682 429 709 433 736.2 436.3C763.3 439.7 790.7 442.3 818 447.5C845.3 452.7 872.7 460.3 886.3 464.2L900 468L900 601L886.3 601C872.7 601 845.3 601 818 601C790.7 601 763.3 601 736.2 601C709 601 682 601 654.8 601C627.7 601 600.3 601 573 601C545.7 601 518.3 601 491 601C463.7 601 436.3 601 409 601C381.7 601 354.3 601 327 601C299.7 601 272.3 601 245.2 601C218 601 191 601 163.8 601C136.7 601 109.3 601 82 601C54.7 601 27.3 601 13.7 601L0 601Z" fill="#fdbfa9"></path><path d="M0 465L13.7 464.5C27.3 464 54.7 463 82 458.5C109.3 454 136.7 446 163.8 447.3C191 448.7 218 459.3 245.2 460C272.3 460.7 299.7 451.3 327 449.8C354.3 448.3 381.7 454.7 409 451.8C436.3 449 463.7 437 491 429.7C518.3 422.3 545.7 419.7 573 417.5C600.3 415.3 627.7 413.7 654.8 415.5C682 417.3 709 422.7 736.2 434.5C763.3 446.3 790.7 464.7 818 477.3C845.3 490 872.7 497 886.3 500.5L900 504L900 601L886.3 601C872.7 601 845.3 601 818 601C790.7 601 763.3 601 736.2 601C709 601 682 601 654.8 601C627.7 601 600.3 601 573 601C545.7 601 518.3 601 491 601C463.7 601 436.3 601 409 601C381.7 601 354.3 601 327 601C299.7 601 272.3 601 245.2 601C218 601 191 601 163.8 601C136.7 601 109.3 601 82 601C54.7 601 27.3 601 13.7 601L0 601Z" fill="#faa98e"></path><path d="M0 524L13.7 519.5C27.3 515 54.7 506 82 505.7C109.3 505.3 136.7 513.7 163.8 514.3C191 515 218 508 245.2 496.2C272.3 484.3 299.7 467.7 327 459.7C354.3 451.7 381.7 452.3 409 458C436.3 463.7 463.7 474.3 491 483C518.3 491.7 545.7 498.3 573 502.3C600.3 506.3 627.7 507.7 654.8 500.2C682 492.7 709 476.3 736.2 466.2C763.3 456 790.7 452 818 452.7C845.3 453.3 872.7 458.7 886.3 461.3L900 464L900 601L886.3 601C872.7 601 845.3 601 818 601C790.7 601 763.3 601 736.2 601C709 601 682 601 654.8 601C627.7 601 600.3 601 573 601C545.7 601 518.3 601 491 601C463.7 601 436.3 601 409 601C381.7 601 354.3 601 327 601C299.7 601 272.3 601 245.2 601C218 601 191 601 163.8 601C136.7 601 109.3 601 82 601C54.7 601 27.3 601 13.7 601L0 601Z" fill="#f69374"></path><path d="M0 493L13.7 494.2C27.3 495.3 54.7 497.7 82 507.5C109.3 517.3 136.7 534.7 163.8 540C191 545.3 218 538.7 245.2 528.7C272.3 518.7 299.7 505.3 327 497.8C354.3 490.3 381.7 488.7 409 487.8C436.3 487 463.7 487 491 497.3C518.3 507.7 545.7 528.3 573 530.8C600.3 533.3 627.7 517.7 654.8 508.8C682 500 709 498 736.2 503.7C763.3 509.3 790.7 522.7 818 530.3C845.3 538 872.7 540 886.3 541L900 542L900 601L886.3 601C872.7 601 845.3 601 818 601C790.7 601 763.3 601 736.2 601C709 601 682 601 654.8 601C627.7 601 600.3 601 573 601C545.7 601 518.3 601 491 601C463.7 601 436.3 601 409 601C381.7 601 354.3 601 327 601C299.7 601 272.3 601 245.2 601C218 601 191 601 163.8 601C136.7 601 109.3 601 82 601C54.7 601 27.3 601 13.7 601L0 601Z" fill="#f07c5b"></path><path d="M0 544L13.7 549.2C27.3 554.3 54.7 564.7 82 571.5C109.3 578.3 136.7 581.7 163.8 576.2C191 570.7 218 556.3 245.2 551.7C272.3 547 299.7 552 327 555C354.3 558 381.7 559 409 563.2C436.3 567.3 463.7 574.7 491 574C518.3 573.3 545.7 564.7 573 556.3C600.3 548 627.7 540 654.8 542.8C682 545.7 709 559.3 736.2 564.2C763.3 569 790.7 565 818 565C845.3 565 872.7 569 886.3 571L900 573L900 601L886.3 601C872.7 601 845.3 601 818 601C790.7 601 763.3 601 736.2 601C709 601 682 601 654.8 601C627.7 601 600.3 601 573 601C545.7 601 518.3 601 491 601C463.7 601 436.3 601 409 601C381.7 601 354.3 601 327 601C299.7 601 272.3 601 245.2 601C218 601 191 601 163.8 601C136.7 601 109.3 601 82 601C54.7 601 27.3 601 13.7 601L0 601Z" fill="#e96443"></path></svg>