<svg id="visual" viewBox="0 0 900 600" width="900" height="600" xmlns="http://www.w3.org/2000/svg" xmlns:xlink="http://www.w3.org/1999/xlink" version="1.1"><path d="M0 452L13.7 433.7C27.3 415.3 54.7 378.7 82 361.5C109.3 344.3 136.7 346.7 163.8 355.3C191 364 218 379 245.2 378.2C272.3 377.3 299.7 360.7 327 366C354.3 371.3 381.7 398.7 409 399.8C436.3 401 463.7 376 491 371.3C518.3 366.7 545.7 382.3 573 386.5C600.3 390.7 627.7 383.3 654.8 391C682 398.7 709 421.3 736.2 424.2C763.3 427 790.7 410 818 410C845.3 410 872.7 427 886.3 435.5L900 444L900 601L886.3 601C872.7 601 845.3 601 818 601C790.7 601 763.3 601 736.2 601C709 601 682 601 654.8 601C627.7 601 600.3 601 573 601C545.7 601 518.3 601 491 601C463.7 601 436.3 601 409 601C381.7 601 354.3 601 327 601C299.7 601 272.3 601 245.2 601C218 601 191 601 163.8 601C136.7 601 109.3 601 82 601C54.7 601 27.3 601 13.7 601L0 601Z" fill="#ffd4c5"></path><path d="M0 462L13.7 463.3C27.3 464.7 54.7 467.3 82 471.5C109.3 475.7 136.7 481.3 163.8 469.2C191 457 218 427 245.2 415.5C272.3 404 299.7 411 327 423.5C354.3 436 381.7 454 409 458.7C436.3 463.3 463.7 454.7 491 441.2C518.3 427.7 545.7 409.3 573 400.5C600.3 391.7 627.7 392.3 654.8 399C682 405.7 709 418.3 736.2 430C763.3 441.7 790.7 452.3 818 453.8C845.3 455.3 872.7 447.7 886.3 443.8L900 440L900 601L886.3 601C872.7 601 845.3 601 818 601C790.7 601 763.3 601 736.2 601C709 601 682 601 654.8 601C627.7 601 600.3 601 573 601C545.7 601 518.3 601 491 601C463.7 601 436.3 601 409 601C381.7 601 354.3 601 327 601C299.7 601 272.3 601 245.2 601C218 601 191 601 163.8 601C136.7 601 109.3 601 82 601C54.7 601 27.3 601 13.7 601L0 601Z" fill="#fdbfa9"></path><path d="M0 419L13.7 422.2C27.3 425.3 54.7 431.7 82 438.2C109.3 444.7 136.7 451.3 163.8 453.8C191 456.3 218 454.7 245.2 457.3C272.3 460 299.7 467 327 474.8C354.3 482.7 381.7 491.3 409 494.5C436.3 497.7 463.7 495.3 491 496C518.3 496.7 545.7 500.3 573 495C600.3 489.7 627.7 475.3 654.8 466.8C682 458.3 709 455.7 736.2 457C763.3 458.3 790.7 463.7 818 457C845.3 450.3 872.7 431.7 886.3 422.3L900 413L900 601L886.3 601C872.7 601 845.3 601 818 601C790.7 601 763.3 601 736.2 601C709 601 682 601 654.8 601C627.7 601 600.3 601 573 601C545.7 601 518.3 601 491 601C463.7 601 436.3 601 409 601C381.7 601 354.3 601 327 601C299.7 601 272.3 601 245.2 601C218 601 191 601 163.8 601C136.7 601 109.3 601 82 601C54.7 601 27.3 601 13.7 601L0 601Z" fill="#faa98e"></path><path d="M0 483L13.7 482.3C27.3 481.7 54.7 480.3 82 484.8C109.3 489.3 136.7 499.7 163.8 507.8C191 516 218 522 245.2 515C272.3 508 299.7 488 327 487.7C354.3 487.3 381.7 506.7 409 505.3C436.3 504 463.7 482 491 475.2C518.3 468.3 545.7 476.7 573 476.5C600.3 476.3 627.7 467.7 654.8 474.5C682 481.3 709 503.7 736.2 510.3C763.3 517 790.7 508 818 507.8C845.3 507.7 872.7 516.3 886.3 520.7L900 525L900 601L886.3 601C872.7 601 845.3 601 818 601C790.7 601 763.3 601 736.2 601C709 601 682 601 654.8 601C627.7 601 600.3 601 573 601C545.7 601 518.3 601 491 601C463.7 601 436.3 601 409 601C381.7 601 354.3 601 327 601C299.7 601 272.3 601 245.2 601C218 601 191 601 163.8 601C136.7 601 109.3 601 82 601C54.7 601 27.3 601 13.7 601L0 601Z" fill="#f69374"></path><path d="M0 538L13.7 540C27.3 542 54.7 546 82 544.2C109.3 542.3 136.7 534.7 163.8 533.2C191 531.7 218 536.3 245.2 534.3C272.3 532.3 299.7 523.7 327 523C354.3 522.3 381.7 529.7 409 527.2C436.3 524.7 463.7 512.3 491 515C518.3 517.7 545.7 535.3 573 541.8C600.3 548.3 627.7 543.7 654.8 544.8C682 546 709 553 736.2 550.3C763.3 547.7 790.7 535.3 818 529.7C845.3 524 872.7 525 886.3 525.5L900 526L900 601L886.3 601C872.7 601 845.3 601 818 601C790.7 601 763.3 601 736.2 601C709 601 682 601 654.8 601C627.7 601 600.3 601 573 601C545.7 601 518.3 601 491 601C463.7 601 436.3 601 409 601C381.7 601 354.3 601 327 601C299.7 601 272.3 601 245.2 601C218 601 191 601 163.8 601C136.7 601 109.3 601 82 601C54.7 601 27.3 601 13.7 601L0 601Z" fill="#f07c5b"></path><path d="M0 585L13.7 577.2C27.3 569.3 54.7 553.7 82 553.3C109.3 553 136.7 568 163.8 572.3C191 576.7 218 570.3 245.2 561C272.3 551.7 299.7 539.3 327 537.2C354.3 535 381.7 543 409 550C436.3 557 463.7 563 491 559.7C518.3 556.3 545.7 543.7 573 546.3C600.3 549 627.7 567 654.8 570.7C682 574.3 709 563.7 736.2 559.3C763.3 555 790.7 557 818 561.5C845.3 566 872.7 573 886.3 576.5L900 580L900 601L886.3 601C872.7 601 845.3 601 818 601C790.7 601 763.3 601 736.2 601C709 601 682 601 654.8 601C627.7 601 600.3 601 573 601C545.7 601 518.3 601 491 601C463.7 601 436.3 601 409 601C381.7 601 354.3 601 327 601C299.7 601 272.3 601 245.2 601C218 601 191 601 163.8 601C136.7 601 109.3 601 82 601C54.7 601 27.3 601 13.7 601L0 601Z" fill="#e96443"></path></svg>