<svg id="visual" viewBox="0 0 900 600" width="900" height="600" xmlns="http://www.w3.org/2000/svg" xmlns:xlink="http://www.w3.org/1999/xlink" version="1.1"><path d="M0 461L13.7 445.7C27.3 430.3 54.7 399.7 82 386.7C109.3 373.7 136.7 378.3 163.8 374.3C191 370.3 218 357.7 245.2 349.5C272.3 341.3 299.7 337.7 327 354.2C354.3 370.7 381.7 407.3 409 425C436.3 442.7 463.7 441.3 491 440.7C518.3 440 545.7 440 573 427.2C600.3 414.3 627.7 388.7 654.8 372.3C682 356 709 349 736.2 362C763.3 375 790.7 408 818 410.3C845.3 412.7 872.7 384.3 886.3 370.2L900 356L900 601L886.3 601C872.7 601 845.3 601 818 601C790.7 601 763.3 601 736.2 601C709 601 682 601 654.8 601C627.7 601 600.3 601 573 601C545.7 601 518.3 601 491 601C463.7 601 436.3 601 409 601C381.7 601 354.3 601 327 601C299.7 601 272.3 601 245.2 601C218 601 191 601 163.8 601C136.7 601 109.3 601 82 601C54.7 601 27.3 601 13.7 601L0 601Z" fill="#ffd4c5"></path><path d="M0 469L13.7 467.3C27.3 465.7 54.7 462.3 82 451.5C109.3 440.7 136.7 422.3 163.8 415.7C191 409 218 414 245.2 418C272.3 422 299.7 425 327 419.3C354.3 413.7 381.7 399.3 409 397.2C436.3 395 463.7 405 491 412.8C518.3 420.7 545.7 426.3 573 421.2C600.3 416 627.7 400 654.8 408.5C682 417 709 450 736.2 450.5C763.3 451 790.7 419 818 419.5C845.3 420 872.7 453 886.3 469.5L900 486L900 601L886.3 601C872.7 601 845.3 601 818 601C790.7 601 763.3 601 736.2 601C709 601 682 601 654.8 601C627.7 601 600.3 601 573 601C545.7 601 518.3 601 491 601C463.7 601 436.3 601 409 601C381.7 601 354.3 601 327 601C299.7 601 272.3 601 245.2 601C218 601 191 601 163.8 601C136.7 601 109.3 601 82 601C54.7 601 27.3 601 13.7 601L0 601Z" fill="#fdbfa9"></path><path d="M0 442L13.7 442.3C27.3 442.7 54.7 443.3 82 444.2C109.3 445 136.7 446 163.8 442.5C191 439 218 431 245.2 439.3C272.3 447.7 299.7 472.3 327 471.7C354.3 471 381.7 445 409 443.2C436.3 441.3 463.7 463.7 491 471.2C518.3 478.7 545.7 471.3 573 458.5C600.3 445.7 627.7 427.3 654.8 428.5C682 429.7 709 450.3 736.2 459.5C763.3 468.7 790.7 466.3 818 466.5C845.3 466.7 872.7 469.3 886.3 470.7L900 472L900 601L886.3 601C872.7 601 845.3 601 818 601C790.7 601 763.3 601 736.2 601C709 601 682 601 654.8 601C627.7 601 600.3 601 573 601C545.7 601 518.3 601 491 601C463.7 601 436.3 601 409 601C381.7 601 354.3 601 327 601C299.7 601 272.3 601 245.2 601C218 601 191 601 163.8 601C136.7 601 109.3 601 82 601C54.7 601 27.3 601 13.7 601L0 601Z" fill="#faa98e"></path><path d="M0 454L13.7 465.2C27.3 476.3 54.7 498.7 82 499.8C109.3 501 136.7 481 163.8 473.3C191 465.7 218 470.3 245.2 469.7C272.3 469 299.7 463 327 458.7C354.3 454.3 381.7 451.7 409 463.2C436.3 474.7 463.7 500.3 491 514.8C518.3 529.3 545.7 532.7 573 523.5C600.3 514.3 627.7 492.7 654.8 478.7C682 464.7 709 458.3 736.2 465.3C763.3 472.3 790.7 492.7 818 493.5C845.3 494.3 872.7 475.7 886.3 466.3L900 457L900 601L886.3 601C872.7 601 845.3 601 818 601C790.7 601 763.3 601 736.2 601C709 601 682 601 654.8 601C627.7 601 600.3 601 573 601C545.7 601 518.3 601 491 601C463.7 601 436.3 601 409 601C381.7 601 354.3 601 327 601C299.7 601 272.3 601 245.2 601C218 601 191 601 163.8 601C136.7 601 109.3 601 82 601C54.7 601 27.3 601 13.7 601L0 601Z" fill="#f69374"></path><path d="M0 520L13.7 519.5C27.3 519 54.7 518 82 513.7C109.3 509.3 136.7 501.7 163.8 499.7C191 497.7 218 501.3 245.2 505.7C272.3 510 299.7 515 327 518.2C354.3 521.3 381.7 522.7 409 519C436.3 515.3 463.7 506.7 491 511.2C518.3 515.7 545.7 533.3 573 535.7C600.3 538 627.7 525 654.8 518.2C682 511.3 709 510.7 736.2 512.8C763.3 515 790.7 520 818 518.2C845.3 516.3 872.7 507.7 886.3 503.3L900 499L900 601L886.3 601C872.7 601 845.3 601 818 601C790.7 601 763.3 601 736.2 601C709 601 682 601 654.8 601C627.7 601 600.3 601 573 601C545.7 601 518.3 601 491 601C463.7 601 436.3 601 409 601C381.7 601 354.3 601 327 601C299.7 601 272.3 601 245.2 601C218 601 191 601 163.8 601C136.7 601 109.3 601 82 601C54.7 601 27.3 601 13.7 601L0 601Z" fill="#f07c5b"></path><path d="M0 584L13.7 575.7C27.3 567.3 54.7 550.7 82 542.5C109.3 534.3 136.7 534.7 163.8 541.3C191 548 218 561 245.2 564.5C272.3 568 299.7 562 327 558.3C354.3 554.7 381.7 553.3 409 557.2C436.3 561 463.7 570 491 571.5C518.3 573 545.7 567 573 561C600.3 555 627.7 549 654.8 543.7C682 538.3 709 533.7 736.2 533.2C763.3 532.7 790.7 536.3 818 538C845.3 539.7 872.7 539.3 886.3 539.2L900 539L900 601L886.3 601C872.7 601 845.3 601 818 601C790.7 601 763.3 601 736.2 601C709 601 682 601 654.8 601C627.7 601 600.3 601 573 601C545.7 601 518.3 601 491 601C463.7 601 436.3 601 409 601C381.7 601 354.3 601 327 601C299.7 601 272.3 601 245.2 601C218 601 191 601 163.8 601C136.7 601 109.3 601 82 601C54.7 601 27.3 601 13.7 601L0 601Z" fill="#e96443"></path></svg>