<svg id="visual" viewBox="0 0 900 600" width="900" height="600" xmlns="http://www.w3.org/2000/svg" xmlns:xlink="http://www.w3.org/1999/xlink" version="1.1"><path d="M0 441L13.7 436.3C27.3 431.7 54.7 422.3 82 419C109.3 415.7 136.7 418.3 163.8 416.2C191 414 218 407 245.2 401.2C272.3 395.3 299.7 390.7 327 387C354.3 383.3 381.7 380.7 409 391.7C436.3 402.7 463.7 427.3 491 427.7C518.3 428 545.7 404 573 391.7C600.3 379.3 627.7 378.7 654.8 389.5C682 400.3 709 422.7 736.2 415C763.3 407.3 790.7 369.7 818 362.3C845.3 355 872.7 378 886.3 389.5L900 401L900 601L886.3 601C872.7 601 845.3 601 818 601C790.7 601 763.3 601 736.2 601C709 601 682 601 654.8 601C627.7 601 600.3 601 573 601C545.7 601 518.3 601 491 601C463.7 601 436.3 601 409 601C381.7 601 354.3 601 327 601C299.7 601 272.3 601 245.2 601C218 601 191 601 163.8 601C136.7 601 109.3 601 82 601C54.7 601 27.3 601 13.7 601L0 601Z" fill="#ffd4c5"></path><path d="M0 463L13.7 467C27.3 471 54.7 479 82 479C109.3 479 136.7 471 163.8 461.8C191 452.7 218 442.3 245.2 438.7C272.3 435 299.7 438 327 437.3C354.3 436.7 381.7 432.3 409 421.2C436.3 410 463.7 392 491 399.3C518.3 406.7 545.7 439.3 573 443.5C600.3 447.7 627.7 423.3 654.8 423.3C682 423.3 709 447.7 736.2 457C763.3 466.3 790.7 460.7 818 457.5C845.3 454.3 872.7 453.7 886.3 453.3L900 453L900 601L886.3 601C872.7 601 845.3 601 818 601C790.7 601 763.3 601 736.2 601C709 601 682 601 654.8 601C627.7 601 600.3 601 573 601C545.7 601 518.3 601 491 601C463.7 601 436.3 601 409 601C381.7 601 354.3 601 327 601C299.7 601 272.3 601 245.2 601C218 601 191 601 163.8 601C136.7 601 109.3 601 82 601C54.7 601 27.3 601 13.7 601L0 601Z" fill="#fdbfa9"></path><path d="M0 428L13.7 435C27.3 442 54.7 456 82 467.7C109.3 479.3 136.7 488.7 163.8 478.5C191 468.3 218 438.7 245.2 423.7C272.3 408.7 299.7 408.3 327 415.7C354.3 423 381.7 438 409 442.3C436.3 446.7 463.7 440.3 491 442.3C518.3 444.3 545.7 454.7 573 458.3C600.3 462 627.7 459 654.8 454C682 449 709 442 736.2 442.7C763.3 443.3 790.7 451.7 818 448.7C845.3 445.7 872.7 431.3 886.3 424.2L900 417L900 601L886.3 601C872.7 601 845.3 601 818 601C790.7 601 763.3 601 736.2 601C709 601 682 601 654.8 601C627.7 601 600.3 601 573 601C545.7 601 518.3 601 491 601C463.7 601 436.3 601 409 601C381.7 601 354.3 601 327 601C299.7 601 272.3 601 245.2 601C218 601 191 601 163.8 601C136.7 601 109.3 601 82 601C54.7 601 27.3 601 13.7 601L0 601Z" fill="#faa98e"></path><path d="M0 464L13.7 468.8C27.3 473.7 54.7 483.3 82 481.8C109.3 480.3 136.7 467.7 163.8 474.8C191 482 218 509 245.2 513.8C272.3 518.7 299.7 501.3 327 499.8C354.3 498.3 381.7 512.7 409 519C436.3 525.3 463.7 523.7 491 520.3C518.3 517 545.7 512 573 509.2C600.3 506.3 627.7 505.7 654.8 502C682 498.3 709 491.7 736.2 496.5C763.3 501.3 790.7 517.7 818 513.3C845.3 509 872.7 484 886.3 471.5L900 459L900 601L886.3 601C872.7 601 845.3 601 818 601C790.7 601 763.3 601 736.2 601C709 601 682 601 654.8 601C627.7 601 600.3 601 573 601C545.7 601 518.3 601 491 601C463.7 601 436.3 601 409 601C381.7 601 354.3 601 327 601C299.7 601 272.3 601 245.2 601C218 601 191 601 163.8 601C136.7 601 109.3 601 82 601C54.7 601 27.3 601 13.7 601L0 601Z" fill="#f69374"></path><path d="M0 530L13.7 530.2C27.3 530.3 54.7 530.7 82 529.5C109.3 528.3 136.7 525.7 163.8 527C191 528.3 218 533.7 245.2 537.8C272.3 542 299.7 545 327 548C354.3 551 381.7 554 409 546.7C436.3 539.3 463.7 521.7 491 520.3C518.3 519 545.7 534 573 538.8C600.3 543.7 627.7 538.3 654.8 533.3C682 528.3 709 523.7 736.2 519.5C763.3 515.3 790.7 511.7 818 516.2C845.3 520.7 872.7 533.3 886.3 539.7L900 546L900 601L886.3 601C872.7 601 845.3 601 818 601C790.7 601 763.3 601 736.2 601C709 601 682 601 654.8 601C627.7 601 600.3 601 573 601C545.7 601 518.3 601 491 601C463.7 601 436.3 601 409 601C381.7 601 354.3 601 327 601C299.7 601 272.3 601 245.2 601C218 601 191 601 163.8 601C136.7 601 109.3 601 82 601C54.7 601 27.3 601 13.7 601L0 601Z" fill="#f07c5b"></path><path d="M0 552L13.7 551.7C27.3 551.3 54.7 550.7 82 547.8C109.3 545 136.7 540 163.8 542.7C191 545.3 218 555.7 245.2 564C272.3 572.3 299.7 578.7 327 580.8C354.3 583 381.7 581 409 581C436.3 581 463.7 583 491 582.5C518.3 582 545.7 579 573 578.2C600.3 577.3 627.7 578.7 654.8 580.3C682 582 709 584 736.2 578.8C763.3 573.7 790.7 561.3 818 558.7C845.3 556 872.7 563 886.3 566.5L900 570L900 601L886.3 601C872.7 601 845.3 601 818 601C790.7 601 763.3 601 736.2 601C709 601 682 601 654.8 601C627.7 601 600.3 601 573 601C545.7 601 518.3 601 491 601C463.7 601 436.3 601 409 601C381.7 601 354.3 601 327 601C299.7 601 272.3 601 245.2 601C218 601 191 601 163.8 601C136.7 601 109.3 601 82 601C54.7 601 27.3 601 13.7 601L0 601Z" fill="#e96443"></path></svg>