<svg id="visual" viewBox="0 0 900 600" width="900" height="600" xmlns="http://www.w3.org/2000/svg" xmlns:xlink="http://www.w3.org/1999/xlink" version="1.1"><path d="M0 389L13.7 399.8C27.3 410.7 54.7 432.3 82 426.5C109.3 420.7 136.7 387.3 163.8 375.5C191 363.7 218 373.3 245.2 374.2C272.3 375 299.7 367 327 369.2C354.3 371.3 381.7 383.7 409 396C436.3 408.3 463.7 420.7 491 429.3C518.3 438 545.7 443 573 428.7C600.3 414.3 627.7 380.7 654.8 362C682 343.3 709 339.7 736.2 340.3C763.3 341 790.7 346 818 356.3C845.3 366.7 872.7 382.3 886.3 390.2L900 398L900 601L886.3 601C872.7 601 845.3 601 818 601C790.7 601 763.3 601 736.2 601C709 601 682 601 654.8 601C627.7 601 600.3 601 573 601C545.7 601 518.3 601 491 601C463.7 601 436.3 601 409 601C381.7 601 354.3 601 327 601C299.7 601 272.3 601 245.2 601C218 601 191 601 163.8 601C136.7 601 109.3 601 82 601C54.7 601 27.3 601 13.7 601L0 601Z" fill="#ffd4c5"></path><path d="M0 392L13.7 388.8C27.3 385.7 54.7 379.3 82 391.5C109.3 403.7 136.7 434.3 163.8 448.8C191 463.3 218 461.7 245.2 452C272.3 442.3 299.7 424.7 327 424C354.3 423.3 381.7 439.7 409 436.5C436.3 433.3 463.7 410.7 491 399.5C518.3 388.3 545.7 388.7 573 401.7C600.3 414.7 627.7 440.3 654.8 445.7C682 451 709 436 736.2 431C763.3 426 790.7 431 818 437.2C845.3 443.3 872.7 450.7 886.3 454.3L900 458L900 601L886.3 601C872.7 601 845.3 601 818 601C790.7 601 763.3 601 736.2 601C709 601 682 601 654.8 601C627.7 601 600.3 601 573 601C545.7 601 518.3 601 491 601C463.7 601 436.3 601 409 601C381.7 601 354.3 601 327 601C299.7 601 272.3 601 245.2 601C218 601 191 601 163.8 601C136.7 601 109.3 601 82 601C54.7 601 27.3 601 13.7 601L0 601Z" fill="#fdbfa9"></path><path d="M0 417L13.7 431.5C27.3 446 54.7 475 82 475.8C109.3 476.7 136.7 449.3 163.8 443C191 436.7 218 451.3 245.2 450.5C272.3 449.7 299.7 433.3 327 436.8C354.3 440.3 381.7 463.7 409 465.3C436.3 467 463.7 447 491 443C518.3 439 545.7 451 573 450.7C600.3 450.3 627.7 437.7 654.8 439.7C682 441.7 709 458.3 736.2 457.7C763.3 457 790.7 439 818 437.7C845.3 436.3 872.7 451.7 886.3 459.3L900 467L900 601L886.3 601C872.7 601 845.3 601 818 601C790.7 601 763.3 601 736.2 601C709 601 682 601 654.8 601C627.7 601 600.3 601 573 601C545.7 601 518.3 601 491 601C463.7 601 436.3 601 409 601C381.7 601 354.3 601 327 601C299.7 601 272.3 601 245.2 601C218 601 191 601 163.8 601C136.7 601 109.3 601 82 601C54.7 601 27.3 601 13.7 601L0 601Z" fill="#faa98e"></path><path d="M0 506L13.7 507C27.3 508 54.7 510 82 513.8C109.3 517.7 136.7 523.3 163.8 525.7C191 528 218 527 245.2 513.8C272.3 500.7 299.7 475.3 327 475.7C354.3 476 381.7 502 409 512.7C436.3 523.3 463.7 518.7 491 518C518.3 517.3 545.7 520.7 573 516.7C600.3 512.7 627.7 501.3 654.8 491.7C682 482 709 474 736.2 467.8C763.3 461.7 790.7 457.3 818 460.8C845.3 464.3 872.7 475.7 886.3 481.3L900 487L900 601L886.3 601C872.7 601 845.3 601 818 601C790.7 601 763.3 601 736.2 601C709 601 682 601 654.8 601C627.7 601 600.3 601 573 601C545.7 601 518.3 601 491 601C463.7 601 436.3 601 409 601C381.7 601 354.3 601 327 601C299.7 601 272.3 601 245.2 601C218 601 191 601 163.8 601C136.7 601 109.3 601 82 601C54.7 601 27.3 601 13.7 601L0 601Z" fill="#f69374"></path><path d="M0 556L13.7 556.8C27.3 557.7 54.7 559.3 82 552.8C109.3 546.3 136.7 531.7 163.8 524C191 516.3 218 515.7 245.2 515.8C272.3 516 299.7 517 327 515.8C354.3 514.7 381.7 511.3 409 509C436.3 506.7 463.7 505.3 491 513.8C518.3 522.3 545.7 540.7 573 549.5C600.3 558.3 627.7 557.7 654.8 553.7C682 549.7 709 542.3 736.2 539.5C763.3 536.7 790.7 538.3 818 542.2C845.3 546 872.7 552 886.3 555L900 558L900 601L886.3 601C872.7 601 845.3 601 818 601C790.7 601 763.3 601 736.2 601C709 601 682 601 654.8 601C627.7 601 600.3 601 573 601C545.7 601 518.3 601 491 601C463.7 601 436.3 601 409 601C381.7 601 354.3 601 327 601C299.7 601 272.3 601 245.2 601C218 601 191 601 163.8 601C136.7 601 109.3 601 82 601C54.7 601 27.3 601 13.7 601L0 601Z" fill="#f07c5b"></path><path d="M0 559L13.7 562.7C27.3 566.3 54.7 573.7 82 571.5C109.3 569.3 136.7 557.7 163.8 555.8C191 554 218 562 245.2 566.7C272.3 571.3 299.7 572.7 327 566.5C354.3 560.3 381.7 546.7 409 543.2C436.3 539.7 463.7 546.3 491 554C518.3 561.7 545.7 570.3 573 571C600.3 571.7 627.7 564.3 654.8 563C682 561.7 709 566.3 736.2 566.5C763.3 566.7 790.7 562.3 818 561.2C845.3 560 872.7 562 886.3 563L900 564L900 601L886.3 601C872.7 601 845.3 601 818 601C790.7 601 763.3 601 736.2 601C709 601 682 601 654.8 601C627.7 601 600.3 601 573 601C545.7 601 518.3 601 491 601C463.7 601 436.3 601 409 601C381.7 601 354.3 601 327 601C299.7 601 272.3 601 245.2 601C218 601 191 601 163.8 601C136.7 601 109.3 601 82 601C54.7 601 27.3 601 13.7 601L0 601Z" fill="#e96443"></path></svg>