<svg width="1152" height="614" viewBox="0 0 1152 614" fill="none" xmlns="http://www.w3.org/2000/svg">
<g clip-path="url(#clip0)">
<path d="M0 343.84L24.2102 358.678C48.5492 373.517 96.9697 403.193 145.261 399.1C193.553 395.007 241.716 357.143 290.008 335.346C338.299 313.447 386.72 307.716 435.011 309.763C483.303 311.81 531.466 321.634 579.758 346.705C628.049 371.777 676.47 412.096 724.761 415.269C773.053 418.543 821.216 384.773 869.508 380.168C917.799 375.563 966.22 400.123 1014.51 404.421C1062.8 408.617 1110.97 392.653 1134.92 384.569L1159 376.587V615.023H1134.92C1110.97 615.023 1062.8 615.023 1014.51 615.023C966.22 615.023 917.799 615.023 869.508 615.023C821.216 615.023 773.053 615.023 724.761 615.023C676.47 615.023 628.049 615.023 579.758 615.023C531.466 615.023 483.303 615.023 435.011 615.023C386.72 615.023 338.299 615.023 290.008 615.023C241.716 615.023 193.553 615.023 145.261 615.023C96.9697 615.023 48.5492 615.023 24.2102 615.023H0V343.84Z" fill="#302A28"/>
<path d="M0 388.867L24.2102 384.773C48.5492 380.68 96.9697 372.493 145.261 382.01C193.553 391.63 241.716 418.85 290.008 429.8C338.299 440.75 386.72 435.224 435.011 424.99C483.303 414.757 531.466 399.816 579.758 405.24C628.049 410.664 676.47 436.656 724.761 447.401C773.053 458.146 821.216 453.644 869.508 436.656C917.799 419.567 966.22 389.89 1014.51 381.703C1062.8 373.517 1110.97 386.82 1134.92 393.472L1159 400.123V615.023H1134.92C1110.97 615.023 1062.8 615.023 1014.51 615.023C966.22 615.023 917.799 615.023 869.508 615.023C821.216 615.023 773.053 615.023 724.761 615.023C676.47 615.023 628.049 615.023 579.758 615.023C531.466 615.023 483.303 615.023 435.011 615.023C386.72 615.023 338.299 615.023 290.008 615.023C241.716 615.023 193.553 615.023 145.261 615.023C96.9697 615.023 48.5492 615.023 24.2102 615.023H0V388.867Z" fill="#4E3532"/>
<path d="M0 461.523L24.2102 457.635C48.5492 453.644 96.9697 445.866 145.261 448.527C193.553 451.29 241.716 464.593 290.008 473.803C338.299 483.013 386.72 488.13 435.011 486.083C483.303 484.037 531.466 474.827 579.758 474.315C628.049 473.803 676.47 481.99 724.761 480.967C773.053 479.943 821.216 469.71 869.508 461.83C917.799 454.053 966.22 448.527 1014.51 443.615C1062.8 438.703 1110.97 434.2 1134.92 432.051L1159 429.8V615.023H1134.92C1110.97 615.023 1062.8 615.023 1014.51 615.023C966.22 615.023 917.799 615.023 869.508 615.023C821.216 615.023 773.053 615.023 724.761 615.023C676.47 615.023 628.049 615.023 579.758 615.023C531.466 615.023 483.303 615.023 435.011 615.023C386.72 615.023 338.299 615.023 290.008 615.023C241.716 615.023 193.553 615.023 145.261 615.023C96.9697 615.023 48.5492 615.023 24.2102 615.023H0V461.523Z" fill="#6E3F43"/>
<path d="M0 523.947L24.2102 529.268C48.5492 534.487 96.9697 545.13 145.261 540.115C193.553 535.203 241.716 514.737 290.008 497.545C338.299 480.25 386.72 466.333 435.011 470.222C483.303 474.11 531.466 496.01 579.758 501.229C628.049 506.55 676.47 495.293 724.761 486.083C773.053 476.873 821.216 469.71 869.508 472.064C917.799 474.52 966.22 486.39 1014.51 494.27C1062.8 502.15 1110.97 505.834 1134.92 507.778L1159 509.62V615.023H1134.92C1110.97 615.023 1062.8 615.023 1014.51 615.023C966.22 615.023 917.799 615.023 869.508 615.023C821.216 615.023 773.053 615.023 724.761 615.023C676.47 615.023 628.049 615.023 579.758 615.023C531.466 615.023 483.303 615.023 435.011 615.023C386.72 615.023 338.299 615.023 290.008 615.023C241.716 615.023 193.553 615.023 145.261 615.023C96.9697 615.023 48.5492 615.023 24.2102 615.023H0V523.947Z" fill="#8D495D"/>
<path d="M0 568.973L24.2102 563.55C48.5492 558.024 96.9697 547.176 145.261 540.627C193.553 534.18 241.716 532.133 290.008 529.575C338.299 527.017 386.72 523.947 435.011 533.975C483.303 544.106 531.466 567.234 579.758 575.625C628.049 584.016 676.47 577.467 724.761 576.955C773.053 576.444 821.216 581.97 869.508 574.397C917.799 566.927 966.22 546.46 1014.51 544.413C1062.8 542.367 1110.97 558.74 1134.92 566.927L1159 575.113V615.023H1134.92C1110.97 615.023 1062.8 615.023 1014.51 615.023C966.22 615.023 917.799 615.023 869.508 615.023C821.216 615.023 773.053 615.023 724.761 615.023C676.47 615.023 628.049 615.023 579.758 615.023C531.466 615.023 483.303 615.023 435.011 615.023C386.72 615.023 338.299 615.023 290.008 615.023C241.716 615.023 193.553 615.023 145.261 615.023C96.9697 615.023 48.5492 615.023 24.2102 615.023H0V568.973Z" fill="#A8547F"/>
</g>
<defs>
<clipPath id="clip0">
<rect width="1159" height="614" fill="white"/>
</clipPath>
</defs>
</svg>
